<?xml version="1.0" encoding="utf-8"?>
<!-- Generator: Adobe Illustrator 19.2.1, SVG Export Plug-In . SVG Version: 6.00 Build 0)  -->
<svg version="1.1" id="layer" xmlns="http://www.w3.org/2000/svg" xmlns:xlink="http://www.w3.org/1999/xlink" x="0px" y="0px"
	 viewBox="0 0 652 652" style="enable-background:new 0 0 652 652;" xml:space="preserve">
<style type="text/css">
	.st0{fill:#5E6A71;}
	.st1{fill:#FFFFFF;}
	.st2{fill:#FDBF57;}
	.st3{fill:#7A003C;}
</style>
<path class="st0" d="M140.9,264.3h-0.5c-2,0-3.6-0.3-4.8-1.8c-1.5-2-1.5-8.4-1.3-10.9v-71.1v-2.3c0-2.8-0.3-7.9,1-9.7
	c0.5-0.5,2.5-0.3,4.3-0.3h1c4.8,0,5.1-3.3,5.1-4.3c0-1.3-0.3-2-1-2.8c-1-1-2.5-0.8-3.8-0.8h-17.8c-1.8,0-4.3,0-5.6,3.3l-30,77.2
	l-24.6-69.3c-1-3-1.5-4.3-1.8-4.8c0-0.3-0.3-0.8-0.3-1v-0.3c-0.8-2.3-1.5-5.1-5.1-5.1H38h-0.8c-1,0-2.8-0.3-3.8,0.8
	c-0.8,0.8-1,1.5-1,2.8c0,1,0.3,4.3,5.1,4.3c3.3,0,5.3,0.3,6.1,1c0.8,1,0.8,3.3,0.5,7.4c0,0.8-4.8,75.4-4.8,75.7
	c-0.5,8.9-1,11.9-7.9,11.9c-4.8,0-5.3,2.5-5.3,3.8s0.5,3.6,3.8,3.6c2.3,0,4.6-0.3,6.9-0.3c2.3-0.3,4.6-0.3,6.9-0.3
	c2.3,0,4.6,0.3,6.9,0.3c2.3,0.3,4.6,0.3,6.9,0.3c1.3,0,4.8,0,4.8-3.6c0-1-0.3-1.8-1-2.3c-1.3-1.3-3.6-1.3-4.8-1.3h-0.3
	c-3,0-5.1-0.8-6.4-2c-2.8-2.8-2.5-8.6-2.3-16l4.1-66l27.7,80.3c0.5,1.5,0.8,2,1,2.5v0.3c0.3,1.3,1,4.3,3.6,4.3c2.3,0,3-2.3,3.6-3.6
	c0-0.3,0-0.3,0.3-0.5l31.8-85.1v73.4c0,3,0,8.4-1.8,10.2c-1.3,1.3-4.3,2-6.1,2h-0.5c-1.3,0-3.3,0-4.8,1.3c-0.8,0.8-1,1.5-1,2.5
	c0,1.3,0.5,3.6,4.3,3.6c3,0,6.1-0.3,8.9-0.3c3-0.3,6.1-0.3,9.1-0.3c2.5,0,4.8,0.3,7.4,0.3c2.3,0.3,4.8,0.3,7.4,0.3
	c3.8,0,4.3-2.3,4.3-3.6c0-1-0.3-1.8-1-2.5C144.5,264.3,142.2,264.3,140.9,264.3z M179,273.7c9.1,0,17.5-3,24.4-9.1
	c4.6-4.3,5.3-6.4,5.3-7.4c0-1.5-1.3-2.8-2.5-2.8s-2.3,1-3.3,2.3c0,0.3-0.3,0.3-0.3,0.3c-4.6,4.8-10.4,7.4-17.5,7.4
	c-17.8,0-28.7-18.3-28.7-35.3c0-10.7,4.1-21.1,11.2-27.7c3.6-3.6,9.9-6.9,15.2-6.9c7.1,0,10.9,6.9,14.2,12.4
	c2.3,4.1,4.1,7.1,6.9,7.1c0.8,0,1.5-0.3,2-1c1.5-1.8,1.5-5.3,1.3-8.9v-0.8v-1.5c0.3-2.5,0.3-5.8-2-7.4c-5.6-4.3-14.5-6.1-20.6-6.1
	c-23.4,0-43.2,20.3-43.2,44.5C141.9,254.6,159,273.7,179,273.7z M268.7,263.8c0-0.3,0-0.3,0.3-0.3l32-84.8v73.4c0,3,0,8.4-1.8,10.2
	c-1.3,1.3-4.3,2-6.1,2h-0.5c-1.3,0-3.3,0-4.8,1.3c-0.8,0.8-1,1.5-1,2.5c0,1.3,0.5,3.6,4.3,3.6c3,0,6.1-0.3,8.9-0.3
	c3-0.3,6.1-0.3,9.1-0.3c2.5,0,4.8,0.3,7.4,0.3c2.3,0.3,4.8,0.3,7.4,0.3c3.8,0,4.3-2.3,4.3-3.6c0-1-0.3-1.8-1-2.5
	c-1.3-1.3-3.3-1.3-4.8-1.3h-0.5c-2,0-3.6-0.3-4.8-1.8c-1.5-2-1.5-8.4-1.3-10.9v-71.1v-2.3c0-2.8-0.3-7.9,1-9.7c0.8-1,2.8-1,4.3-0.8
	h1c4.8,0,5.1-3.3,5.1-4.3c0-1.3-0.3-2-1-2.8c-1-1-2.8-1-4.1-0.8h-17.8c-1.8,0-4.3,0-5.6,3.3l-29.5,77.7l-25.4-71.6
	c-0.5-1.5-0.8-2.3-1-2.5c0-0.5-0.3-0.8-0.3-1.3c-0.8-2.3-1.5-5.1-5.1-5.1h-18.5c-1.3,0-2.8-0.3-4.1,0.8c-0.5,0.8-0.8,1.5-0.8,2.8
	c0,1,0.3,4.3,5.1,4.3c3.3,0,5.3,0.3,6.1,1c0.8,1,0.8,3.3,0.5,7.4c-4.6,75.2-4.8,75.7-4.8,75.7c-0.5,8.9-1,11.9-7.9,11.9
	c-4.8,0-5.3,2.5-5.3,3.8s0.5,3.6,3.8,3.6c2.3,0,4.6-0.3,6.9-0.3c2.3-0.3,4.6-0.3,6.9-0.3c2.3,0,4.6,0.3,6.9,0.3
	c2.3,0.3,4.6,0.3,6.9,0.3c1.3,0,4.8,0,4.8-3.6c0-1-0.3-1.8-1-2.3c-1.3-1.3-3.6-1.3-4.8-1.3h-0.3c-3,0-5.1-0.8-6.4-2
	c-2.8-2.8-2.5-8.6-2.3-16l4.1-65.8l27.4,79.8c0.5,1.8,1,2.5,1,3v0.3c0.3,1.3,1,4.3,3.6,4.3C267.4,267.6,268.2,265.3,268.7,263.8z"/>
<path class="st0" d="M369.8,262.8c1.5,3.8,4.1,9.9,10.2,9.9c4.6,0,9.1-3,12.4-5.6l0.3-0.3c1.5-1.3,4.1-3.8,4.1-6.4
	c0-1.5-1.3-2.8-2.5-2.8s-2,1-2.8,1.8c-1,1.3-2.5,2.5-4.3,2.5c-0.8,0-1.3-0.3-1.8-0.8c-2.3-2.3-2.3-8.9-2.3-11.7v-44.2
	c0-4.3,0.3-8.6-3.6-12.2c-3.3-3.3-8.6-5.1-15.7-5.1c-10.4,0-22.1,4.8-30,12.7c-3.3,3-7.1,8.6-7.1,13.7c0,2.3,1.3,3.6,3.6,3.6
	s5.8-1.5,7.4-2.5c2.8-1.3,3.8-3.8,4.8-6.4l0.3-0.8c4.1-9.9,9.1-14,17.3-14s8.9,4.6,8.9,14.5v7.9c0,6.1,0,6.1-5.3,8.6
	c0,0-4.3,2.3-7.6,4.1c-2.5,1.3-4.8,2.5-4.8,2.5l-1,0.5c-9.4,5.1-23.4,12.7-23.4,25.7c0,10.2,8.4,15.5,16.5,15.5
	c11.2,0,20.1-8.1,24.4-11.9c0.5-0.5,1-1,1.5-1.3C369.3,261,369.5,262,369.8,262.8L369.8,262.8z M353.3,238.1c0.3-0.3,1-0.5,2.3-1.3
	L368,230c0.3,0,0.5-0.3,0.8-0.3h0.3c0,0.5,0.3,1.3,0,2.8v11.2c0,5.6-0.3,8.4-3.6,12.4c-3.8,4.1-8.9,6.6-14,6.6
	c-4.6,0-9.7-2.3-9.7-9.1C341.3,245.7,346.9,241.4,353.3,238.1z M431,220.6c-8.9-3.3-16.8-6.4-16.8-15c0-7.6,7.9-11.7,13.5-11.7
	c10.7,0,13.5,6.9,15.2,11.7c1,2.8,2,5.1,4.3,5.1c0.8,0,1.5-0.3,2-0.8c1.5-1.8,1.3-5.3,1-8.6v-0.8V199c0.3-2.5,0.5-6.1-2.8-7.6
	c-4.1-1.8-13-3-17.3-3c-8.1,0-14.7,2-19.8,6.1c-5.8,4.8-9.1,10.9-9.1,17.8c0,14.7,14,19.8,24.1,23.4c0.8,0.3,1.3,0.5,1.5,0.5
	c7.1,2.5,14.5,6.1,14.5,15.7c0,10.4-9.4,16-18.3,16c-13.2,0-15.2-9.7-16.5-16.8c-0.8-4.1-1.5-7.6-4.6-7.6s-3.3,3.6-3.6,5.1v0.3
	c0,0,0,1.5-0.5,9.7v3.3c0,2.5,0,5.3,3,6.9c5.8,3.3,15.7,5.6,21.1,5.6c13.2,0,32-8.6,32-27.4C454.6,229.5,442.2,224.7,431,220.6
	L431,220.6z M497.1,257.7c-1,0-1.8,0.8-3,1.8c-2,1.8-5.1,4.3-8.6,4.3c-1.8,0-3.3-0.5-4.6-1.8c-3.6-3.6-3.6-11.9-3.6-17.3V199
	c0-1.8,0.3-2.3,0.5-2.3c0.3-0.3,1.3-0.3,2.3-0.3h12.4c1.5,0,2.8,0.3,3.6-0.8c1-0.8,1-2.3,1-3.6s0-3.8-2.8-3.8h-16c-1,0-1.3,0-1.3-2
	v-12.7c0-3-1.8-3.6-2.8-3.6c-1.8,0-2.5,1.8-3,2.5c-3.6,8.1-7.9,12.4-15,17.5l-0.3,0.3c-0.8,0.8-2,1.8-2,3.3c0,0.8,0.3,1.5,0.8,2
	c1.3,1,3.3,1,5.1,1h2.8c0,0.3,0.3,0.5,0.3,1.8V247c0,6.9-0.3,15,3.8,20.6c2.8,3.8,7.6,6.1,12.7,6.1c5.8,0,11.4-2.5,16-7.1
	c1-0.8,3.8-3.6,3.8-6.1C499.6,259.2,498.6,257.7,497.1,257.7L497.1,257.7z"/>
<path class="st0" d="M517.1,222.9h49.5c0.8,0,3.3-0.3,3.3-4.6c0-6.1-2.5-14-5.8-18.8c-5.3-7.4-14.2-11.7-24.4-11.7
	c-11.2,0-21.6,4.3-30,12.2c-8.1,7.9-11.9,17.5-11.9,30.7c0,23.9,16.8,42.4,37.8,42.4c10.7,0,18.8-3.3,26.4-10.4
	c4.6-4.3,6.6-7.1,6.6-8.9c0-1.5-1.3-2.8-2.8-2.8c-1.3,0-2,0.8-3.6,2.5c-3.3,3.3-9.1,9.1-20.1,9.1c-19.6,0-29.7-18-29.7-35.8
	c0-2,0.3-3.3,0.5-3.6C514.1,222.9,515.3,222.9,517.1,222.9z M517.9,205.4c4.6-7.1,11.9-11.2,19.6-11.2c3.8,0,9.4,0.8,13,5.1
	c2.3,2.8,3.8,6.6,3.8,9.7s-1.5,4.8-4.8,5.6c-4.6,1.3-13.5,1.3-18.3,1.3h-14c-1,0-2.5,0-3-0.3c0,0-0.3-0.3-0.3-0.5
	C514.1,212.5,516.6,207.4,517.9,205.4z M615.4,188.8c-8.6,0-14.5,7.9-17.8,12.2c-0.3,0.3-0.5,0.5-0.5,0.8v-0.5v-9.1
	c0-0.8,0-2.3-0.8-3c-0.3-0.3-1-0.8-2-0.8c-1.8,0-2.8,1.3-3.6,2.3l0.3,0.3l-0.3-0.3l-0.5,0.5c-2.5,3.3-9.1,7.6-12.7,8.9
	c-0.3,0-0.5,0.3-0.5,0.3c-1.5,0.5-4.1,1.3-4.1,4.1c0,1.8,1.3,2.8,3.3,2.8h2c1.8,0,3,0.3,3.6,1c0.8,1,1.3,4.3,1.3,9.9v37.1
	c0.3,6.6,0,9.7-6.1,10.2h-0.8c-1.5,0-5.1,0.3-5.1,3.8c0,2,1.5,3.3,3.8,3.3c2.5,0,5.1-0.3,7.6-0.3c2.5-0.3,5.1-0.3,7.6-0.3
	c2.3,0,4.8,0,7.1,0.3c2.5,0.3,5.1,0.3,7.9,0.3c2,0,3.3-1.3,3.3-3.3c0-3.3-3.6-3.6-5.1-3.8h-0.8c-5.8-0.5-6.1-3.6-6.1-10.2v-32.3
	c0-6.6,0-10.9,3.3-16.3c1.8-2.3,4.1-5.8,7.1-5.8c1.3,0,2,1,3.6,2.5c1.5,1.8,3.3,4.3,6.9,4.3c4.8,0,8.1-3.6,8.1-8.6
	C626.1,193.2,621.5,188.8,615.4,188.8L615.4,188.8z M88.6,289.9c-1.3,0-2.5,0-3.8,0.3c-1.3,0-2.3,0.3-3.6,0.3c-1.3,0-2.8,0-4.1-0.3
	c-1.5,0-2.8-0.3-4.3-0.3c-1,0-2,0.3-2.5,1c-0.5,0.5-0.8,1.3-0.8,2c0,1,0.5,1.5,0.8,1.8c1,1,2.3,1,3,1h0.3c2,0,3.6,0,4.3,1.5
	c0.8,1.5,0.8,7.1,0.8,9.1v29.5c0,4.8,0,9.1-3,12.4c-4.1,4.6-10.4,5.1-14,5.1c-2.5,0-10.9-0.5-13.7-6.1c-1.8-3.3-1.8-9.9-1.8-14.2
	v-31.5c0-2.5,0-4.3,0.5-5.1c0.5-0.5,1.8-0.8,4.1-0.8c3.3,0,3.8-1.5,3.8-2.8c0-1.8-1.3-2.8-3-2.8s-3.6,0-5.3,0.3
	c-1.8,0-3.6,0.3-5.3,0.3c-1.8,0-3.3,0-5.1-0.3c-1.5,0-3.6-0.3-5.3-0.3c-1,0-1.8,0.3-2.3,0.8s-0.8,1.3-0.8,2c0,1.3,0.8,2.8,3.8,2.8
	c2.3,0,3.6,0.3,4.1,0.8c0.8,0.8,0.8,2.5,0.5,5.1v34.5c0,6.9,0,13.2,6.1,17.8c5.3,4.3,13.7,5.1,18.3,5.1c8.4,0,14.5-2,18.5-5.8
	c5.6-5.3,5.6-10.9,5.6-17.5V308v-5.1v-1.8c0-4.3,0.3-5.6,3.3-5.6c3.6,0,4.3-1.5,4.3-2.8C91.9,292.2,91.6,289.9,88.6,289.9z
	 M140.7,352.7h-0.5c-2.8-0.3-3-1.3-3-5.3v-19.1c0-4.8,0-9.9-3-14.2c-2.8-4.1-6.9-6.1-12.2-6.1c-6.6,0-11.2,4.3-14,6.9v-4.1
	c0-0.8,0-1.5-0.8-2.3c-0.3-0.3-0.8-0.5-1.5-0.5c-1.3,0-2,1-2.5,1.5c0,0-0.3,0.3-0.3,0.5c-1.3,1.8-5.1,4.3-7.1,4.8h-0.3
	c-1,0.3-2.8,1-2.8,3c0,1.3,1,2.3,2.5,2.3h1.3c1,0,1.5,0.3,1.5,0.3c0.3,0.3,0.5,1,0.5,5.3v21.6c0,4.1-0.3,5.1-3,5.3h-0.5
	c-0.8,0-3.6,0.3-3.6,2.8c0,1.3,0.8,2.5,2.8,2.5c1.5,0,3,0,4.6-0.3c1.5,0,2.8-0.3,4.3-0.3c1.3,0,2.8,0,4.1,0.3c1.5,0,3,0.3,4.6,0.3
	c1.5,0,2.5-1,2.5-2.5c0-2.5-2.5-2.8-3.6-2.8h-0.3c-2.8-0.3-3-1.3-3-5.3V328c0-4.1,0.3-5.8,2.5-8.6c2.3-2.5,5.1-4.1,8.1-4.1
	c3.3,0,6.1,1.5,7.6,4.1c1.5,2.5,1.5,6.4,1.5,9.7v18.3c0,4.1-0.3,5.1-3,5.3h-0.5c-0.8,0-3.6,0.3-3.6,2.8c0,1.3,0.8,2.5,2.8,2.5
	c1.5,0,3,0,4.3-0.3c1.5,0,2.8-0.3,4.3-0.3c1.3,0,2.8,0,4.1,0.3c1.5,0,3,0.3,4.6,0.3c1.5,0,2.5-1,2.5-2.5
	C144.2,352.9,141.4,352.7,140.7,352.7z M167.3,352.7h-0.5c-2.8-0.3-3-1.3-3-5.3v-36.6c0-0.5,0-1.5-0.8-2.3c-0.3-0.3-0.8-0.5-1.5-0.5
	c-1.3,0-2,1-2.5,1.5l-0.3,0.3c-1.3,1.8-5.1,4.3-7.1,4.8h-0.3c-1,0.3-2.8,1-2.8,3c0,1.3,1,2.3,2.5,2.3h1.3c1,0,1.5,0.3,1.5,0.3
	c0.3,0.3,0.5,1,0.5,5.3v21.6c0,4.1-0.3,5.1-3,5.3h-0.5c-0.8,0-3.6,0.3-3.6,2.8c0,1.3,0.8,2.5,2.8,2.5c1.5,0,3,0,4.6-0.3
	c1.5,0,2.8-0.3,4.3-0.3c1.3,0,2.8,0,4.1,0.3c1.5,0,3,0.3,4.6,0.3s2.5-1,2.5-2.5C170.9,352.9,168.4,352.7,167.3,352.7z M153.9,295.3
	c0,3.8,2.3,6.4,5.3,6.4c3.3,0,5.6-2.5,5.6-6.6c0-3-2-6.4-5.3-6.4C156.4,288.7,153.9,291.5,153.9,295.3z M220.4,309.5
	c-0.5-0.5-1.3-0.5-1.8-0.5h-14c-2.3,0-2.8,1.3-2.8,2.3c0,1.8,1.3,2.5,4.1,2.5c0.8,0,2.3,0.3,2.3,1.3c0,0.8-0.5,2.3-1,3.3
	c0,0.3-0.3,0.5-0.3,0.8c-0.3,0.3-0.5,1.3-1.3,2.8l-8.4,20.6c-8.1-22.1-8.4-22.6-8.4-22.6l-0.3-0.3c-0.3-1-1.3-3.3-1.3-4.3
	c0-1.5,1.8-1.5,2-1.5h0.3c0.8,0,2.3,0,3-0.8c0.5-0.5,0.8-1,0.8-1.5c0-0.8-0.3-1.5-0.8-1.8c-0.8-0.8-1.8-0.8-2.3-0.8h-17.3
	c-0.5,0-1.3,0-2,0.5c0,0.8-0.3,1.3-0.3,2c0,0.8,0.3,1.5,0.8,2c0.5,0.5,1.3,0.5,2.3,0.5c2.8,0.3,3,1,4.3,4.3l0.3,0.8
	c5.1,13.7,13.5,36.3,13.5,36.6l0.5,1.3c0.3,1.3,1.3,2,2.3,2c1.5,0,2.3-1.8,2.8-2.8V356l-0.3-0.3h0.3c0,0,13.2-32,13.5-32.3
	c0.3-0.5,0.5-1,0.5-1.5c1.3-3.6,2.8-7.4,5.8-7.9h0.3c0.8,0,3.3-0.3,3.3-2.8C221.2,311,221.2,310.3,220.4,309.5z M232.6,329.3h28.7
	c0.5,0,2.5-0.3,2.5-3.3c0-3.8-1.5-8.4-3.6-11.2c-3.3-4.6-8.6-7.1-14.5-7.1c-6.6,0-13,2.5-17.8,7.4s-7.1,10.4-7.1,18.3
	c0,14.2,9.9,25.4,22.6,25.4c6.4,0,11.2-2,15.7-6.4c3.6-3.3,4.1-4.8,4.1-5.6c0-1.3-1-2.3-2.3-2.3c-1,0-1.5,0.8-2.5,1.5
	c-1.8,1.8-5.1,5.1-11.2,5.1c-10.9,0-16.8-10.2-16.8-20.3c0-1.3,0.3-1.8,0.3-1.8C231.1,329.3,232.1,329.3,232.6,329.3z M244.6,312.5
	c2,0,5.1,0.5,7.1,2.8c1.3,1.5,2,3.6,2,5.1s-0.8,2.3-2.3,2.8c-2.5,0.8-7.6,0.8-10.4,0.8h-7.6h-1.8c0-1.3,1.3-4.1,2-5.1
	C236.2,314.8,240.2,312.5,244.6,312.5L244.6,312.5z M294.6,308.5c-4.8,0-8.1,3.8-9.9,6.4v-4.1c0-0.5,0-1.5-0.8-2.3
	c-0.3-0.3-0.8-0.5-1.5-0.5c-1.3,0-2,1-2.5,1.5c0,0-0.3,0.3-0.3,0.5c-1.3,1.8-5.1,4.3-7.1,4.8h-0.3c-1,0.3-2.8,1-2.8,3
	c0,1.3,1,2.3,2.5,2.3h1.3c1,0,1.5,0.3,1.5,0.3c0.3,0.3,0.5,1,0.5,5.3v21.6c0,4.1-0.3,5.1-3,5.3h-0.5c-0.8,0-3.6,0.3-3.6,2.8
	c0,1.3,0.8,2.5,2.8,2.5c1.5,0,3,0,4.6-0.3c1.5,0,2.8-0.3,4.3-0.3c1.3,0,2.8,0,4.1,0.3c1.5,0,3,0.3,4.6,0.3c1.5,0,2.5-1,2.5-2.5
	c0-2.5-2.5-2.8-3.6-2.8h-0.3c-2.8-0.3-3-1.3-3-5.3v-18.5c0-3.8,0-6.1,1.8-9.1c1-1.3,2.3-3,3.6-3c0.5,0,0.8,0.3,1.5,1.3
	c0.8,1,2,2.8,4.6,2.8c3,0,5.3-2.3,5.3-5.6C301.2,311.3,298.4,308.5,294.6,308.5z M323.8,326.8c-5.1-1.8-9.4-3.6-9.4-8.1
	c0-4.1,4.3-6.4,7.1-6.4c5.8,0,7.4,3.6,8.4,6.4c0.8,1.5,1.3,3.3,3,3.3c0.5,0,1.3-0.3,1.5-0.8c1-1.3,1-3.3,0.8-5.6v-0.3v-1
	c0-1.5,0.3-4.1-2-5.1c-2.5-1.3-7.6-1.8-10.2-1.8c-4.8,0-8.9,1.3-11.9,3.8c-3.6,2.8-5.6,6.6-5.6,10.7c0,9.1,8.4,11.9,14.5,14.2
	l0.8,0.3c5.1,1.8,8.1,3.8,8.1,8.6c0,5.6-5.1,8.6-9.9,8.6c-7.1,0-8.1-4.8-8.9-9.1c-0.5-2.5-1-5.1-3.3-5.1s-2.5,2.5-2.5,3.3v0.3
	l-0.3,7.1v0.5c0,1.5,0,3.6,2,4.6c3.6,2,9.4,3.3,12.7,3.3c9.4,0,19.3-6.1,19.3-16.5C338,332.1,330.4,329.3,323.8,326.8z M360.9,295
	c0-3-2-6.4-5.3-6.4c-3,0-5.6,2.8-5.6,6.6s2.3,6.4,5.3,6.4C358.9,301.6,360.9,299.1,360.9,295z M363.4,352.7h-0.5
	c-2.8-0.3-3-1.3-3-5.3v-36.6c0-0.8,0-1.5-0.8-2.3c-0.3-0.3-0.8-0.5-1.5-0.5c-1.3,0-2,1-2.5,1.5c0,0-0.3,0.3-0.3,0.5
	c-1.3,1.8-5.1,4.3-7.1,4.8h-0.3c-1,0.3-2.8,1-2.8,3c0,1.3,1,2.3,2.5,2.3h1.3c1,0,1.5,0.3,1.5,0.3c0.3,0.3,0.5,1,0.5,5.3v21.6
	c0,4.1-0.3,5.1-3,5.3h-0.5c-0.8,0-3.6,0.3-3.6,2.8c0,1.3,0.8,2.5,2.8,2.5c1.5,0,3,0,4.6-0.3c1.5,0,2.8-0.3,4.3-0.3
	c1.3,0,2.8,0,4.1,0.3c1.5,0,3,0.3,4.6,0.3c1.5,0,2.5-1,2.5-2.5C367,352.9,364.5,352.7,363.4,352.7z M392.9,348.4
	c-0.8,0-1.3,0.5-2.3,1.3c-1,1-2.8,2.5-4.6,2.5c-1,0-1.5-0.3-2.3-0.8c-1.8-1.8-1.8-6.6-1.8-9.7v-26.9v-1h8.4c1,0,1.8,0,2.5-0.5
	c0.8-0.8,0.8-1.5,0.8-2.5c0-2-0.8-2.8-2.3-2.8h-9.1H382v-7.9c0-2.5-1.8-2.8-2.3-2.8c-1,0-1.8,0.5-2.3,1.8c-2,4.6-4.6,7.1-8.4,9.9
	l-0.3,0.3c-0.5,0.5-1.5,1.3-1.5,2.5c0,0.5,0.3,1.3,0.8,1.5c1,0.8,2.3,0.8,3.6,0.8h1v29c0,4.1,0,8.9,2.3,12.2
	c1.8,2.3,4.6,3.8,7.9,3.8c3.6,0,6.9-1.5,9.7-4.3c0.8-0.8,2.3-2.3,2.3-4.1C394.9,349.6,394.2,348.4,392.9,348.4L392.9,348.4z
	 M444,309h-14.7c-1.5,0-2.8,1.3-2.8,2.8c0,2.3,2.5,2.3,3.6,2.3c3.6,0,3.6,1.8,3.6,2.3c0,1-0.8,2.5-1,3.6v0.3c0,0.3-6.1,16-9.1,23.6
	l-9.1-24.4v-0.3c-0.5-1-1-2.5-1-3.6c0-1.8,3-1.8,3.3-1.8c3,0,3.8-1.3,3.8-2.3c0-1.8-1.3-2.8-2.8-2.8h-18c-1.8,0-3.3,1-3.3,2.8
	c0,2.3,2.8,2.3,3.8,2.3c2,0,3,2,4.1,5.3c0,0,0.3,0.8,0.5,1l12.2,32.3c0,0.3,0.3,0.8,0.5,1c0.3,1,0.8,2,0.8,2.8c0,0.8-0.3,1.3-0.5,2
	c0,0.3-0.3,0.5-0.3,0.5c-2.5,6.4-3,7.9-3,8.1c0,0.3-0.3,0.5-0.3,0.5v0.3c-0.5,1-0.8,2-1.3,2c-0.8,0.3-2,0.3-3,0.3h-0.8
	c-4.3,0-4.3,4.1-4.3,5.6c0,1.5,0.5,2.5,1.3,3.3c1.3,1.3,3.3,1.5,5.1,1.5h0.5c4.3,0,4.8-1.5,5.8-4.8v-0.3l15.7-41.7
	c2-5.3,2.8-7.1,2.8-7.9c0.8-2,3.3-8.4,4.8-10.7c0.8-1,2.3-1.8,3-1.8h0.5c1,0,2.8-0.3,2.8-2C446.8,310.3,445.5,309,444,309z"/>
<path id="shieldoutlinetop" class="st1" d="M622.5,286.4H468.1v117.1c2.5,27.9,30.5,74.4,76.7,88.7l0.8,0.3l0.8,0.3l0.8,0.3l0.8-0.3
	l0.8-0.3l0.8-0.3c46.2-14.2,74.2-61,76.7-89.4V286.9h-3.6V286.4z M621.3,291.2V403c-2.3,27.2-29.5,71.9-74.2,85.9l-0.8,0.3h-0.5
	l-0.8-0.3c-44.7-13.7-71.9-58.7-74.2-85.6V289.9h149.6v1.3H621.3z"/>
<path id="shieldtop" class="st0" d="M617.7,290.2H471.4v113.3c2.3,26.9,29.5,71.6,74.2,85.6l0.8,0.3h0.5l0.8-0.3
	c44.7-13.7,71.6-58.7,74.2-85.9V290.4h-4.1V290.2z M617.7,403.2c-2,23.6-26.7,68.6-71.6,82.6c-45-14-69.6-58.9-71.6-82.6v-68.6h143
	v68.6L617.7,403.2z M617.7,334.6H474.4v-40.9h143.3V334.6z"/>
<path class="st2" d="M546.3,334.6h-71.6v68.6c2,23.6,26.7,68.6,71.6,82.6c45-14,69.6-58.9,71.6-82.6v-68.6
	C618,334.6,546.3,334.6,546.3,334.6z M575.5,349.6c0,0,6.6,11.9,0.5,16.5c0,0,3.8-0.5,7.1,1.3c0,0-2.3,4.1-4.6,5.3
	c0,0,4.8,2.3,6.1,4.1c0,0-3,2.5-7.1,3c0,0,4.3,2.8,5.6,5.1c0,0-3.3,2.3-7.4,1.5c0,0,4.6,3,4.8,6.4c0,0-4.6,1.3-7.9-2.5
	c0,0,3,5.1,1.3,8.4c-0.5,1-1.8,2-1.8,2c-2.8-1.5-3.3-1.5-3.6-4.6c0-1.5,0.3-1.8,0.3-5.1c0-2.8-0.5-5.3-0.5-5.3s6.1-1,4.6-11.7
	c0,0-8.1,5.6-9.1-2C562.6,362.8,576.6,367.7,575.5,349.6z M568.2,438.5c0,0-0.3,0-0.5,0.3c-0.8,0.3-1.3,1-1,2.8c0,0-2.5-2.8,1-4.8
	l0.3-0.3C567.9,436.8,567.4,437.8,568.2,438.5L568.2,438.5z M563.1,422c0,0,0.8,2,1,2.5c1.8,3.8-0.8,9.1-0.8,9.1
	c1.3-7.1-6.1-13.5-6.1-13.5c1-3.3,4.6-8.4,4.8-8.6c0,0.3,0.3,1,2,3.8c5.1,8.1,9.7,7.6,9.7,7.6C569.5,425.1,563.1,422,563.1,422z
	 M561.6,404c-9.1,16.3-15.7,18.5-3,29.7c0,0-8.1,2.3-10.2-4.8c0,0,0.5,7.9-1.5,9.9c-2-2-1.5-9.7-1.5-9.7c-1.8,7.1-10.2,4.8-10.2,4.8
	c12.7-11.2,6.1-13.5-3-29.7c-8.9-15.7,0.8-22.6,5.1-34.3c2-0.3,5.3-1,6.9-2.8c0,0,0.8,1.3,2.5,1.8c1.8-0.5,2.8-1.8,2.8-1.8
	c1.3,1.5,5.1,2.5,6.9,2.5C560.8,381.4,570.5,388.5,561.6,404z M530.8,433.7c0,0-2.5-5.1-0.8-9.1c0.3-0.3,1-2.5,1-2.5
	s-6.4,3-10.7,0.8c0,0,4.6,0.5,9.7-7.6c1.8-3,2-3.8,2-3.8c0.3,0.5,3.8,5.3,4.8,8.6C536.9,420,529.3,426.6,530.8,433.7z M526,439.1
	c-0.3,0-0.5-0.3-0.5-0.3c0.5-0.8,0.3-1.8,0.3-1.8c0.3,0,0.3,0.3,0.3,0.3c3.6,2,1,4.8,1,4.8C527.3,439.8,526.5,439.3,526,439.1
	L526,439.1z M529.1,351.9c0,0.8,1,2.3,1.8,2.8c1.3,1,11.9,0.3,13.2,0.3c-1-2-5.8-5.8-8.4-5.6c-2.8,0-3.6,2.8-3.6,2.8
	c-1.3-1.3-1.5-3.6,0.3-5.3c1.5-1.5,8.9-2,9.4-2.5c0.3-0.5,0.8-1.5,2.5-1.3s3.3,3,8.1,2c0,0,3.8-0.3,3-2.5c-0.3-1-2.5-1-2.5-1
	s4.8-0.8,4.3,3c-0.3,2.8-4.6,2.5-4.8,7.4c0,0.8-0.3,10.4,4.8,14.2c0,0-6.4-0.5-8.9-7.1c0,0,0,4.8-1.5,4.8c-1.5,0-2-4.8-2-4.8
	c-0.5,6.4-7.9,5.8-7.9,5.8c5.1-0.8,3.6-3.3,3-4.1c-0.8-1.3-2.8-0.5-3.6-0.5c-3.3,1-3-1.3-3-1.3h8.4c2.3-0.3,2-2.3,2.3-3
	c-1,0-11.4,0.3-12.2,0.3c-0.8,0-1.3,0-2.5-0.8C528.3,354.7,529.1,351.9,529.1,351.9L529.1,351.9z M518.4,349.6
	c-1,18,13,13.5,11.9,22.6c-1,7.6-9.1,2-9.1,2c-1.5,10.7,4.6,11.7,4.6,11.7s-0.3,2.5-0.5,5.3c0,3.3,0.3,3.6,0.3,5.1
	c-0.3,3-0.8,3.3-3.6,4.6c0,0-1-1-1.8-2c-1.8-3.3,1.3-8.4,1.3-8.4c-3.3,4.1-7.9,2.5-7.9,2.5c0.3-3.3,4.8-6.4,4.8-6.4
	c-4.1,0.8-7.4-1.5-7.4-1.5c1.3-2.3,5.6-5.1,5.6-5.1c-4.3-0.3-7.1-3-7.1-3c1.3-1.8,6.1-4.1,6.1-4.1c-2.3-1.3-4.6-5.3-4.6-5.3
	c3.3-1.8,7.1-1.3,7.1-1.3C511.8,361.6,518.4,349.6,518.4,349.6z M490.2,411.9c0,0,14.5,4.6,20.3-10.2c-9.7,7.6-16,6.9-18.8,5.6
	c-3.8-1.8-4.6-7.6-4.6-7.6c6.4,3,16-1.8,21.1-7.9c-13.5,2-19.1-1.8-20.6-4.1c-2.3-3.6-4.3-9.7-4.3-9.7c3.6,3.6,15.7,7.6,22.6,3.8
	c-14-6.9-20.1-9.1-21.3-12.4c-1.5-4.1-1.5-10.7-1.5-10.7c2.5,4.6,14.5,9.4,23.4,10.7c-14.2-9.4-20.1-15.7-20.3-19.6
	c-0.5-4.3,0.5-10.9,0.5-10.9c2.5,7.4,24.4,19.1,24.4,19.1c0,1.5-0.3,3,0.3,4.6c0,0-2.5,0.8-5.3,3.6c0,0,1.3,3.8,2.8,5.8
	c0,0-3.3,2.5-4.3,4.8c0,0,0.3,1.8,3.8,4.6c0,0-1,1-2.5,4.3c0,0,2.3,2.3,4.8,3.6c0,0-1.3,2.5-1,5.6c0,0,3,2.8,6.4,2.8
	c0,0,0.3,2,2.3,4.6c0.8,1,3.6,3.3,3.6,3.3s4.8-1.8,6.1-3.3l0.3,0.8c0,0,0.3,1.5,2,4.1c0,0-3.6,14.5-22.6,15
	c10.9-3.6,11.7-14.5,11.7-14.5c-11.2,12.2-18,13.7-21.6,11.9C493.5,417.7,490.2,411.9,490.2,411.9L490.2,411.9z M499.6,442.1
	c0,0-3.8-3.6,0.5-7.1c0,0-0.5,1,0.5,2.5C500.4,437.8,497.8,438.8,499.6,442.1z M500.4,427.6c0,0,0.5-3.8,4.8-2.3c0,0-1,0.5-1.3,1.5
	C503.9,426.9,501.6,425.3,500.4,427.6z M505.4,446.9c0,0,0,1.3,1.3,2.3c0,0-2,1.8,0.8,4.3C507.5,453.5,502.4,451.5,505.4,446.9z
	 M519.7,438.3c-1-0.8-3-0.3-3.6,0c-1.3,0.5-2.3,2.3-2.8,5.6c-0.8,4.3-4.1,4.8-5.1,3.8c-3.3-3.3,1.5-6.4,2.3-6.9
	c2.8-2.3,2.5-3.6,2-4.1c-0.8-1.3-4.1-1.3-6.4,0.5c-2,1.8-5.3,0.5-4.3-2.5c0.8-2.5,4.3-1.3,5.1-1.3c0.5,0,1.3,0.3,1.8-0.5
	c0.5-0.8-0.8-1.8-1.5-2c-1.3-0.5-2.5-2-1.5-3.3c1.3-1.5,3.6-0.5,3.6,1.8c0,1,0.5,3,1.8,3.8c4.1,1.8,9.4-5.1,9.4-5.1s2.3,0.8,5.1,0.5
	c0,0-1.3,3.3-7.1,6.1c-1.3,0.8-1,1.5-0.3,2c0,0,1.3,0.3,2,0c1.3-0.5,3-1,3.6,1c0.5,2-1.8,3.3-3.6,2
	C520.7,439.1,519.9,438.5,519.7,438.3L519.7,438.3z M525.5,462.7c-9.4-10.7-2.3-17.8,4.6-20.6c4.6-2,4.3-3.3,4.3-3.3
	s5.1,1.5,8.1-0.3c0,0-0.8,2.3-2.3,4.6c-7.6,10.2-12.7,5.1-12.7,5.1C521.4,450.7,525.5,462.7,525.5,462.7z M563.1,463.4
	c-2.8,2.3-5.1-4.1-5.1-4.1s-0.3,5.8-5.3,6.1c0,0,7.6-4.6-0.3-15c0.8,7.4-1.8,14.2-5.3,14.2c-3.6,0-6.1-6.9-5.3-14.2
	c-7.9,10.4-0.3,15-0.3,15c-5.1,0-5.3-6.1-5.3-6.1s-2.3,6.4-5.1,4.1c-4.3-3.6,3.3-7.1,3.3-7.1c-4.3-0.3-5.1-2.8-5.1-2.8
	c11.2,1.3,16-10.4,16-10.4c0.8,0.8,1.3,0.8,1.8,1c0.5-0.3,1.3-0.5,1.8-1c0,0,4.8,11.7,16,10.4c0,0-0.8,2.5-5.1,2.8
	C559.8,456.6,567.4,459.9,563.1,463.4L563.1,463.4z M568.4,462.7c0,0,3.8-11.9-2-14.7c0,0-5.3,5.1-12.7-5.1c-1.5-2-2.3-4.6-2.3-4.6
	c3,2,8.1,0.3,8.1,0.3s-0.3,1.5,4.3,3.3C570.7,444.9,577.8,452.3,568.4,462.7z M586.5,453.5c2.8-2.5,0.8-4.3,0.8-4.3
	c1.5-1.3,1.3-2.3,1.3-2.3C591.3,451.5,586.5,453.5,586.5,453.5z M587.5,437c-2-1.8-5.3-1.8-6.4-0.5c-0.3,0.5-0.8,2,2,4.1
	c1,0.8,5.8,3.8,2.3,6.9c-1.3,1-4.3,0.8-5.1-3.8c-0.5-3.3-1.5-4.8-2.8-5.6c-0.5-0.3-2.5-0.8-3.6,0c-0.3,0.3-1,0.8-1,0.8
	c-1.8,1.3-4.1-0.3-3.6-2c0.5-2.3,2.3-1.8,3.6-1c1,0.5,2,0,2,0c0.8-0.5,1-1.3-0.3-2c-5.8-2.8-7.1-6.1-7.1-6.1
	c2.8,0.3,5.1-0.5,5.1-0.5s5.3,7.1,9.4,5.1c1.3-0.5,1.8-2.8,1.8-3.8c0-2,2.3-3.3,3.6-1.8c1.3,1.5-0.3,2.8-1.5,3.3
	c-0.8,0.3-1.8,1.3-1.5,2c0.5,0.8,1,0.5,1.8,0.5c0.8,0,4.3-1.3,5.1,1.3C593.1,437.3,589.5,438.8,587.5,437L587.5,437z M590,426.9
	c-0.3-1-1.3-1.5-1.3-1.5c4.3-1.5,4.8,2.3,4.8,2.3C592.1,425.3,590,426.9,590,426.9z M594.3,442.1c1.8-3.3-0.8-4.3-0.8-4.3
	c1-1.5,0.5-2.5,0.5-2.5C598.2,438.5,594.3,442.1,594.3,442.1z M610.6,378.1c0,0-2,5.8-4.3,9.7c-1.5,2.3-7.1,6.1-20.6,4.1
	c5.1,6.1,14.5,10.9,21.1,7.9c0,0-0.8,5.8-4.6,7.6c-2.8,1.3-9.1,2-18.8-5.6c5.8,14.5,20.3,10.2,20.3,10.2s-3.3,5.8-7.1,7.9
	c-3.3,1.8-10.2,0.3-21.6-11.9c0,0,0.8,10.9,11.7,14.5c-19.3-0.5-22.6-15-22.6-15c1.8-2.8,2-4.1,2-4.1l0.3-0.8
	c1.3,1.3,6.1,3.3,6.1,3.3s2.8-2.5,3.6-3.3c1.8-2.8,2.3-4.6,2.3-4.6c3.3,0,6.4-2.8,6.4-2.8c0.3-3-1-5.6-1-5.6c2.3-1,4.8-3.6,4.8-3.6
	c-1.5-3.3-2.5-4.3-2.5-4.3c3.8-2.8,3.8-4.6,3.8-4.6c-1-2.5-4.3-4.8-4.3-4.8c1.5-2,2.8-5.8,2.8-5.8c-2.8-2.8-5.3-3.6-5.3-3.6
	c0.5-1.5,0.3-3,0.3-4.6c0,0,22.1-11.4,24.4-19.1c0,0,1,6.6,0.5,10.9c-0.3,3.8-6.4,9.9-20.3,19.6c8.6-1.3,20.6-6.1,23.4-10.7
	c0,0,0,6.9-1.5,10.7c-1.3,3.3-7.4,5.6-21.3,12.4C595.1,385.7,607,381.6,610.6,378.1L610.6,378.1z"/>
<path class="st2" d="M562.3,389.3c-1-2-2.3-2.8-3.3-3c-0.3-0.3-0.3-0.5-0.5-1c-1.3-2-3.6-2.3-5.3-1.5c-0.5,0.3-1,0.5-1.3,0.5
	l0.3-0.5c0.3-0.3,0.5-0.8,0.8-1.5c0.5-1.5,0.3-3.8-1.5-5.3c-0.3-0.3-0.5-0.3-1-0.5c-0.3-1-1-2.3-3-3.3l-0.5-0.3l-0.5,0.3
	c-2,1-2.8,2.3-3,3.3c-0.3,0-0.5,0.3-1,0.5c-2,1.3-2.3,3.6-1.5,5.3c0.3,1,0.5,1.3,0.8,1.5l0.5,0.5c-0.3-0.3-0.8-0.3-1.3-0.5
	c-1.5-0.5-3.8-0.3-5.3,1.5c-0.3,0.3-0.3,0.5-0.5,1c-1,0.3-2.3,1-3.3,3l-0.3,0.5l0.3,0.5c1,2,2.3,2.8,3.3,3c0,0.3,0.3,0.5,0.5,1
	c1.3,2,3.6,2.3,5.3,1.5c1-0.3,1.3-0.5,1.5-0.8l0.5-0.5v5.3l-0.5-0.5l-0.8,1c-0.3,0.3-0.5,0.8-0.8,1.5c-0.5,1.5-0.3,3.8,1.5,5.3
	c0.3,0.3,0.5,0.3,1,0.5c0.3,1,1,2.3,3,3.3l0.5,0.3l0.5-0.3c2-1,2.8-2.3,3-3.3c0.3,0,0.5-0.3,1-0.5c2-1.3,2.3-3.6,1.5-5.3
	c-0.3-1-0.5-1.3-0.8-1.5l-0.8-1l-0.5,0.5v-5.3l0.5,0.5c0.3,0.3,0.8,0.5,1.5,0.8c1.5,0.5,3.8,0.3,5.3-1.5c0.3-0.3,0.3-0.5,0.5-1
	c1-0.3,2.3-1,3.3-3l0.3-0.5L562.3,389.3L562.3,389.3z M559.3,390C559.3,390,559,390,559.3,390c0,0.3-1.3,1.8-2.8,1.3
	c0.3,0.5,0.3,1-0.3,1.8c-0.8,1-1.8,0.8-2,0.8H554l0.3-0.3c0,0,0.3-0.3,0.3-0.5c0-0.3,0-0.8-0.8-1.3c-0.3-0.3-1-0.3-1.5-0.3h-3.8
	v10.2c0,0.3,0,1.3,0.3,1.5c0.5,0.5,1,0.8,1.3,0.8s0.5-0.3,0.5-0.3l0.3-0.3v0.3c0.3,0.5,0.3,1.5-0.8,2c-0.8,0.5-1.3,0.3-1.8,0.3
	c0.5,1.5-1.3,2.8-1.3,2.8s-1.5-1.3-1.3-2.8c-0.5,0.3-1,0.3-1.8-0.3c-1-0.8-0.8-1.8-0.8-2v-0.3l0.3,0.3c0,0,0.3,0.3,0.5,0.3
	c0.3,0,0.8,0,1.3-0.8c0.3-0.3,0.3-1,0.3-1.5v-10.2h-4.1c-0.3,0-1,0-1.5,0.3c-0.5,0.5-0.8,1-0.5,1.3c0,0.3,0.3,0.5,0.3,0.5l0.3,0.3
	h-0.3c-0.5,0.3-1.5,0.3-2-0.8c-0.5-0.8-0.3-1.3-0.3-1.8c-1.5,0.5-2.8-1.3-2.8-1.3s1.3-1.5,2.8-1.3c-0.3-0.5-0.3-1,0.3-1.8
	c0.8-1,1.8-0.8,2-0.8h0.3l-0.3,0.3c0,0-0.3,0.3-0.3,0.5c0,0.3,0,0.8,0.5,1.3c0.3,0.3,1.3,0.3,1.5,0.3h4.1v-5.6c0-0.3,0-1-0.3-1.5
	c-0.5-0.5-1-0.8-1.3-0.8s-0.5,0.3-0.5,0.3l-0.3,0.3v-0.3c-0.3-0.5-0.3-1.5,0.8-2c0.8-0.5,1.3-0.3,1.8-0.3c-0.5-1.5,1.3-2.8,1.3-2.8
	s1.5,1.3,1.3,2.8c0.5-0.3,1-0.3,1.8,0.3c1,0.8,0.8,1.8,0.8,2v0.3l-0.3-0.3c0,0-0.3-0.3-0.5-0.3c-0.3,0-0.8,0-1.3,0.8
	c-0.3,0.3-0.3,1.3-0.3,1.5v5.6h3.8c0.3,0,1.3,0,1.5-0.3c0.5-0.5,0.8-1,0.8-1.3c0-0.3-0.3-0.5-0.3-0.5l-0.3-0.3h0.3
	c0.5-0.3,1.5-0.3,2,0.8c0.5,0.8,0.3,1.3,0.3,1.8C558,388.2,559,389.8,559.3,390z M544.8,348.4c0-0.3,0-0.5-0.3-0.8h1.3v-0.3
	l-0.3-1.3v-0.3h-0.3l-5.8,2.3l3.3-0.3c0,0.3-0.3,0.5-0.3,0.5c0,0.8,0.5,1.3,1.3,1.3C544.3,349.9,544.8,349.1,544.8,348.4
	L544.8,348.4z"/>
<g id="eagletop">
	<path class="st3" d="M540.2,442.9c1.5-2,2.3-4.6,2.3-4.6c-3,2-8.1,0.3-8.1,0.3s0.3,1.5-4.3,3.3c-6.9,2.8-14,10.2-4.6,20.6
		c0,0-3.8-11.9,2-14.7C527.5,447.9,532.9,453,540.2,442.9z M517.9,365.9c0,0-3.8-0.5-7.1,1.3c0,0,2.3,4.1,4.6,5.3
		c0,0-4.8,2.3-6.1,4.1c0,0,3,2.5,7.1,3c0,0-4.3,2.8-5.6,5.1c0,0,3.3,2.3,7.4,1.5c0,0-4.6,3-4.8,6.4c0,0,4.6,1.3,7.9-2.5
		c0,0-3,5.1-1.3,8.4c0.5,1,1.8,2,1.8,2c2.8-1.5,3.3-1.5,3.6-4.6c0-1.5-0.3-1.8-0.3-5.1c0-2.8,0.5-5.3,0.5-5.3s-6.1-1-4.6-11.7
		c0,0,8.1,5.6,9.1-2c1-9.1-13-4.6-11.9-22.6C518.4,349.6,511.8,361.6,517.9,365.9z"/>
	<path class="st3" d="M518.9,407.8c0,0-0.8,10.9-11.7,14.5c19.3-0.5,22.6-15,22.6-15c-1.8-2.8-2-4.1-2-4.1l-0.3-0.8
		c-1.3,1.3-6.1,3.3-6.1,3.3s-2.8-2.5-3.6-3.3c-1.8-2.8-2.3-4.6-2.3-4.6c-3.3,0-6.4-2.8-6.4-2.8c-0.3-3,1-5.6,1-5.6
		c-2.3-1-4.8-3.6-4.8-3.6c1.5-3.3,2.5-4.3,2.5-4.3c-3.8-2.8-3.8-4.6-3.8-4.6c1-2.5,4.3-4.8,4.3-4.8c-1.5-2-2.8-5.8-2.8-5.8
		c2.8-2.8,5.3-3.6,5.3-3.6c-0.5-1.5-0.3-3-0.3-4.6c0,0-22.1-11.4-24.4-19.1c0,0-1,6.6-0.5,10.9c0.3,3.8,6.4,9.9,20.3,19.6
		c-8.6-1.3-20.6-6.1-23.4-10.7c0,0,0,6.9,1.5,10.7c1.3,3.3,7.4,5.6,21.3,12.4c-6.9,3.8-19.1-0.5-22.6-3.8c0,0,2,5.8,4.3,9.7
		c1.5,2.3,7.1,6.1,20.6,4.1c-5.1,6.1-14.5,10.9-21.1,7.9c0,0,0.8,5.8,4.6,7.6c2.8,1.3,9.1,2,18.8-5.6c-5.8,14.5-20.3,10.2-20.3,10.2
		s3.3,5.8,7.1,7.9C500.9,421.5,507.7,420,518.9,407.8L518.9,407.8z M536.9,420c-1-3.3-4.6-8.4-4.8-8.6c0,0.3-0.3,1-2,3.8
		c-5.1,8.1-9.7,7.6-9.7,7.6c4.3,2.3,10.7-0.8,10.7-0.8s-0.8,2-1,2.5c-1.8,3.8,0.8,9.1,0.8,9.1C529.3,426.6,536.9,420,536.9,420z
		 M531.9,411.4C531.9,411.4,532.1,411.4,531.9,411.4C532.1,411.4,531.9,411.4,531.9,411.4z"/>
	<path class="st3" d="M524.2,437c-0.5-2.3-2.3-1.8-3.6-1c-1,0.5-2,0-2,0c-0.8-0.5-1-1.3,0.3-2c5.8-2.8,7.1-6.1,7.1-6.1
		c-2.8,0.3-5.1-0.5-5.1-0.5s-5.3,7.1-9.4,5.1c-1.3-0.5-1.8-2.8-1.8-3.8c0-2-2.3-3.3-3.6-1.8s0.3,2.8,1.5,3.3c0.8,0.3,1.8,1.3,1.5,2
		c-0.5,0.8-1,0.5-1.8,0.5c-0.8,0-4.3-1.3-5.1,1.3c-1,3,2.5,4.3,4.3,2.5c2-1.8,5.3-1.8,6.4-0.5c0.3,0.5,0.8,2-2,4.1
		c-1,0.8-5.8,3.8-2.3,6.9c1.3,1,4.3,0.8,5.1-3.8c0.5-3.3,1.5-4.8,2.8-5.6c0.5-0.3,2.5-0.8,3.6,0c0.3,0.3,1,0.8,1,0.8
		C522.5,440.3,524.7,438.8,524.2,437L524.2,437z M503.9,426.9c0.3-1,1.3-1.5,1.3-1.5c-4.3-1.5-4.8,2.3-4.8,2.3
		C501.6,425.3,503.9,426.9,503.9,426.9z M499.9,435.2c-4.3,3.3-0.5,7.1-0.5,7.1c-1.8-3.3,0.8-4.3,0.8-4.3
		C499.6,436.3,499.9,435.2,499.9,435.2z M506.7,449.2c-1.5-1.3-1.3-2.3-1.3-2.3c-2.8,4.6,2,6.6,2,6.6
		C504.7,451,506.7,449.2,506.7,449.2z M526,437l-0.3-0.3c0,0,0.5,1-0.3,1.8c0,0,0.3,0,0.5,0.3c0.8,0.3,1.3,1,1,2.8
		C527,441.8,529.6,439.1,526,437L526,437z M567.7,437c-3.6,2-1,4.8-1,4.8c-0.3-1.8,0.3-2.5,1-2.8c0.3,0,0.5-0.3,0.5-0.3
		c-0.5-0.8-0.3-1.8-0.3-1.8C567.9,436.8,567.7,436.8,567.7,437L567.7,437z M563.9,442.1c-4.6-2-4.3-3.3-4.3-3.3s-5.1,1.5-8.1-0.3
		c0,0,0.8,2.3,2.3,4.6c7.6,10.2,12.7,5.1,12.7,5.1c6.1,2.8,2,14.7,2,14.7C577.8,452.3,570.7,444.9,563.9,442.1z M572.8,374.3
		c1.5,10.7-4.6,11.7-4.6,11.7s0.3,2.5,0.5,5.3c0,3.3-0.3,3.6-0.3,5.1c0.3,3,0.8,3.3,3.6,4.6c0,0,1-1,1.8-2c1.8-3.3-1.3-8.4-1.3-8.4
		c3.3,4.1,7.9,2.5,7.9,2.5c-0.3-3.3-4.8-6.4-4.8-6.4c4.1,0.8,7.4-1.5,7.4-1.5c-1.3-2.3-5.6-5.1-5.6-5.1c4.3-0.3,7.1-3,7.1-3
		c-1.3-1.8-6.1-4.1-6.1-4.1c2.3-1.3,4.6-5.3,4.6-5.3c-3.3-1.8-7.1-1.3-7.1-1.3c6.1-4.3-0.5-16.5-0.5-16.5c1,18-13,13.5-11.9,22.6
		C564.4,379.9,572.8,374.3,572.8,374.3z"/>
	<path class="st3" d="M606.5,387.7c2.3-3.6,4.3-9.7,4.3-9.7c-3.6,3.6-15.7,7.6-22.6,3.8c14-6.9,20.1-9.1,21.3-12.4
		c1.5-4.1,1.5-10.7,1.5-10.7c-2.5,4.6-14.5,9.4-23.4,10.7c14.2-9.4,20.1-15.7,20.3-19.6c0.5-4.3-0.5-10.9-0.5-10.9
		c-2.5,7.4-24.4,19.1-24.4,19.1c0,1.5,0.3,3-0.3,4.6c0,0,2.5,0.8,5.3,3.6c0,0-1.3,3.8-2.8,5.8c0,0,3.3,2.5,4.3,4.8
		c0,0-0.3,1.8-3.8,4.6c0,0,1,1,2.5,4.3c0,0-2.3,2.3-4.8,3.6c0,0,1.3,2.5,1,5.6c0,0-3,2.8-6.4,2.8c0,0-0.3,2-2.3,4.6
		c-0.8,1-3.6,3.3-3.6,3.3s-4.8-1.8-6.1-3.3l-0.3,0.8c0,0-0.3,1.5-2,4.1c0,0,3.6,14.5,22.6,15c-10.9-3.6-11.7-14.5-11.7-14.5
		c11.2,12.2,18,13.7,21.6,11.9c3.8-2,7.1-7.9,7.1-7.9s-14.5,4.6-20.3-10.2c9.7,7.6,16,6.9,18.8,5.6c3.8-1.8,4.6-7.6,4.6-7.6
		c-6.4,3-16-1.8-21.1-7.9C599.2,393.8,605,390,606.5,387.7L606.5,387.7z M561.8,411.4C561.8,411.4,562.1,411.4,561.8,411.4
		C562.1,411.4,561.8,411.4,561.8,411.4z M573.8,422.8c0,0-4.6,0.5-9.7-7.6c-1.8-3-2-3.8-2-3.8c-0.3,0.5-3.8,5.3-4.8,8.6
		c0,0,7.4,6.4,6.1,13.5c0,0,2.5-5.1,0.8-9.1c-0.3-0.3-1-2.5-1-2.5S569.5,425.1,573.8,422.8z"/>
	<path class="st3" d="M586.7,433c-0.5,0-1.3,0.3-1.8-0.5c-0.5-0.8,0.8-1.8,1.5-2c1.3-0.5,2.5-2,1.5-3.3c-1.3-1.5-3.6-0.5-3.6,1.8
		c0,1-0.5,3-1.8,3.8c-4.1,1.8-9.4-5.1-9.4-5.1s-2.3,0.8-5.1,0.5c0,0,1.3,3.3,7.1,6.1c1.3,0.8,1,1.5,0.3,2c0,0-1.3,0.3-2,0
		c-1.3-0.5-3-1-3.6,1c-0.5,2,1.8,3.3,3.6,2c0,0,0.8-0.5,1-0.8c1-0.8,3-0.3,3.6,0c1.3,0.5,2.3,2.3,2.8,5.6c0.8,4.3,4.1,4.8,5.1,3.8
		c3.3-3.3-1.5-6.4-2.3-6.9c-2.8-2.3-2.5-3.6-2-4.1c0.8-1.3,4.1-1.3,6.4,0.5c2,1.8,5.3,0.5,4.3-2.5C591,431.9,587.7,433.2,586.7,433
		L586.7,433z M588.8,425.3c0,0,1,0.5,1.3,1.5c0,0,2-1.5,3.6,0.8C593.6,427.6,593.3,423.8,588.8,425.3z M593.8,435.2
		c0,0,0.5,1-0.5,2.5c0,0,2.5,1,0.8,4.3C594.3,442.1,598.2,438.5,593.8,435.2z M587.2,449.2c0,0,2,1.8-0.8,4.3c0,0,4.8-2,2-6.6
		C588.5,446.9,588.8,447.9,587.2,449.2z M564.9,453.8c-11.2,1.3-16-10.4-16-10.4c-0.8,0.8-1.3,0.8-1.8,1c-0.5-0.3-1.3-0.5-1.8-1
		c0,0-4.8,11.7-16,10.4c0,0,0.8,2.5,5.1,2.8c0,0-7.6,3.6-3.3,7.1c2.8,2.3,5.1-4.1,5.1-4.1s0.3,5.8,5.3,6.1c0,0-7.6-4.6,0.3-15
		c-0.8,7.4,1.8,14.2,5.3,14.2c3.6,0,6.1-6.9,5.3-14.2c7.9,10.4,0.3,15,0.3,15c5.1,0,5.3-6.1,5.3-6.1s2.3,6.4,5.1,4.1
		c4.3-3.6-3.3-7.1-3.3-7.1C564.1,456.1,564.9,453.8,564.9,453.8L564.9,453.8z M532.1,356.2c0.8,0,10.9-0.3,12.2-0.3
		c-0.3,0.8,0,2.8-2.3,3h-8.4c0,0-0.3,2,3,1.3c0.8-0.3,2.8-0.8,3.6,0.5c0.5,0.8,2,3.6-3,4.1c0,0,7.4,0.5,7.9-5.8c0,0,0.5,4.6,2,4.8
		c1.5,0,1.5-4.8,1.5-4.8c2.5,6.6,8.9,7.1,8.9,7.1c-5.3-3.6-5.1-13.5-4.8-14.2c0.3-4.8,4.6-4.3,4.8-7.4c0.5-4.1-4.3-3-4.3-3
		s2,0,2.5,1c0.8,2.3-3,2.5-3,2.5c-4.8,1.3-6.4-1.5-8.1-2c-1.8-0.3-2,0.8-2.5,1.3c-0.3,0.5-7.9,0.8-9.4,2.5c-1.8,1.8-1.5,4.1-0.3,5.3
		c0,0,0.8-2.5,3.6-2.8c2.8,0,7.4,3.6,8.4,5.6c-1.3,0-11.7,0.8-13.2-0.3c-0.8-0.8-1.8-2-1.8-2.8c0,0-0.5,2.8,0.8,3.6
		C531.1,356.5,531.3,356.2,532.1,356.2L532.1,356.2z M543.5,349.9c-0.8,0-1.3-0.5-1.3-1.3c0-0.3,0-0.5,0.3-0.5l-3.3,0.3l5.8-2.3h0.3
		v0.3l0.3,1.3v0.3h-1.3c0.3,0.3,0.3,0.5,0.3,0.8C544.8,349.1,544.3,349.9,543.5,349.9L543.5,349.9z M556.5,370
		c-1.8-0.3-5.6-1-6.9-2.5c0,0-0.8,1.3-2.8,1.8c-1.8-0.5-2.5-1.8-2.5-1.8c-1.5,1.5-4.8,2.5-6.9,2.8c-4.3,11.4-14,18.5-5.1,34.3
		c9.1,16.3,15.7,18.5,3,29.7c0,0,8.1,2.3,10.2-4.8c0,0-0.3,7.6,1.5,9.7c2-2,1.5-9.9,1.5-9.9c1.8,7.1,10.2,4.8,10.2,4.8
		c-12.7-11.2-6.1-13.5,3-29.7C570.5,388.5,560.8,381.4,556.5,370z M559,393.6c0,0.3-0.3,0.5-0.5,1c-1.3,2-3.6,2.3-5.3,1.5
		c-1-0.3-1.3-0.5-1.5-0.8l-0.5-0.5v5.3l0.5-0.5l0.8,1c0.3,0.3,0.5,0.8,0.8,1.5c0.5,1.5,0.3,3.8-1.5,5.3c-0.3,0.3-0.5,0.3-1,0.5
		c-0.3,1-1,2.3-3,3.3l-0.5,0.3l-0.5-0.3c-2-1-2.8-2.3-3-3.3c-0.3,0-0.5-0.3-1-0.5c-2-1.3-2.3-3.6-1.5-5.3c0.3-1,0.5-1.3,0.8-1.5
		l0.8-1l0.5,0.5v-5.3l-0.5,0.5c-0.3,0.3-0.8,0.5-1.5,0.8c-1.5,0.5-3.8,0.3-5.3-1.5c-0.3-0.3-0.3-0.5-0.5-1c-1-0.3-2.3-1-3.3-3
		l-0.3-0.5l0.3-0.5c1-2,2.3-2.8,3.3-3c0-0.3,0.3-0.5,0.5-1c1.3-2,3.6-2.3,5.3-1.5c0.5,0.3,1,0.5,1.3,0.5l-0.5-0.5
		c-0.3-0.3-0.5-0.8-0.8-1.5c-0.5-1.5-0.3-3.8,1.5-5.3c0.3-0.3,0.5-0.3,1-0.5c0.3-1,1-2.3,3-3.3l0.5-0.3l0.5,0.3c2,1,2.8,2.3,3,3.3
		c0.3,0,0.5,0.3,1,0.5c2,1.3,2.3,3.6,1.5,5.3c-0.3,1-0.5,1.3-0.8,1.5l-0.3,0.5c0.3-0.3,0.5-0.3,1.3-0.5c1.5-0.5,3.8-0.3,5.3,1.5
		c0.3,0.3,0.3,0.5,0.5,1c1,0.3,2.3,1,3.3,3l0.3,0.5l-0.3,0.5C561.3,392.6,560.1,393.3,559,393.6z"/>
	<path class="st3" d="M556.2,388.5c0.3-0.5,0.3-1-0.3-1.8c-0.8-1-1.8-0.8-2-0.8h-0.3l0.3,0.3c0,0,0.3,0.3,0.3,0.5
		c0,0.3,0,0.8-0.8,1.3c-0.3,0.3-1.3,0.3-1.5,0.3h-3.8v-5.6c0-0.3,0-1.3,0.3-1.5c0.5-0.5,1-0.8,1.3-0.8s0.5,0.3,0.5,0.3l0.3,0.3v-0.3
		c0.3-0.5,0.3-1.5-0.8-2c-0.8-0.5-1.3-0.3-1.8-0.3c0.5-1.5-1.3-2.8-1.3-2.8s-1.5,1.3-1.3,2.8c-0.5-0.3-1-0.3-1.8,0.3
		c-1,0.8-0.8,1.8-0.8,2v0.3l0.3-0.3c0,0,0.3-0.3,0.5-0.3c0.3,0,0.8,0,1.3,0.8c0.3,0.3,0.3,1,0.3,1.5v5.6H541c-0.3,0-1.3,0-1.5-0.3
		c-0.5-0.5-0.8-1-0.5-1.3c0-0.3,0.3-0.5,0.3-0.5l0.3-0.3h-0.3c-0.5-0.3-1.5-0.3-2,0.8c-0.5,0.8-0.3,1.3-0.3,1.8
		c-1.5-0.5-2.8,1.3-2.8,1.3s1.3,1.5,2.8,1.3c-0.3,0.5-0.3,1,0.3,1.8c0.8,1,1.8,0.8,2,0.8h0.3l-0.3-0.3c0,0-0.3-0.3-0.3-0.5
		c0-0.3,0-0.8,0.5-1.3c0.3-0.3,1-0.3,1.5-0.3h4.1v10.2c0,0.3,0,1-0.3,1.5c-0.5,0.5-1,0.8-1.3,0.8c-0.3,0-0.5-0.3-0.5-0.3l-0.3-0.3
		v0.3c-0.3,0.5-0.3,1.5,0.8,2c0.8,0.5,1.3,0.3,1.8,0.3c-0.5,1.5,1.3,2.8,1.3,2.8s1.5-1.3,1.3-2.8c0.5,0.3,1,0.3,1.8-0.3
		c1-0.8,0.8-1.8,0.8-2v-0.3l-0.3,0.3c0,0-0.3,0.3-0.5,0.3c-0.3,0-0.8,0-1.3-0.8c-0.3-0.3-0.3-1.3-0.3-1.5v-10.2h3.8
		c0.3,0,1,0,1.5,0.3c0.5,0.5,0.8,1,0.8,1.3c0,0.3-0.3,0.5-0.3,0.5l-0.3,0.3h0.3c0.5,0.3,1.5,0.3,2-0.8c0.5-0.8,0.3-1.3,0.3-1.8
		c1.5,0.5,2.8-1.3,2.8-1.3S558,388.2,556.2,388.5z"/>
</g>
<path id="bookspinetop" class="st0" d="M474.4,293.8v40.9h143.3v-40.9H474.4z M505.2,321.4l-6.4-0.5c0,0-0.5,2-0.5,4.6
	c0,1.8,1,2.3,1.5,2.5h-4.3c0.5-0.3,1.5-0.8,1.5-2.5c0.3-2.5-0.5-4.6-0.5-4.6l-6.4,0.5l1.3-2l-6.6-6.1l1.8-0.5l-1-4.3l4.1,0.8l0.8-2
	l2.8,3.3l-0.8-7.6l2.3,2l2.8-5.3l2.8,5.3l2.3-2l-0.8,7.6l2.8-3.3l0.8,2l4.1-0.8l-1,4.3l1.8,0.5l-6.6,6.1L505.2,321.4L505.2,321.4z
	 M571.5,328.8h-20.6c0,0-1.5-3.3-4.6-3.3c-3,0-4.6,3.3-4.6,3.3h-20.3v-23.6h4.1v-3.6h3c0,0,4.6,0.3,6.9-0.8s8.4-3,11.2,1
	c2.8-4.1,8.6-2,11.2-1c2.3,1,6.9,0.8,6.9,0.8h3v3.6h4.1v23.6H571.5z M601.5,321.4l-6.4-0.5c0,0-0.8,2-0.5,4.6c0,1.8,1,2.3,1.5,2.5
	h-4.3c0.5-0.3,1.5-0.8,1.5-2.5c0-2.5-0.5-4.6-0.5-4.6l-6.4,0.5l1.3-2l-6.6-6.1l1.8-0.5l-1-4.3l4.1,0.8l0.8-2l2.8,3.3l-0.8-7.6l2.3,2
	l2.8-5.3l2.8,5.3l2.3-2l-0.8,7.6l2.8-3.3l0.8,2l4.1-0.8l-1,4.3l1.8,0.5l-6.6,6.1L601.5,321.4L601.5,321.4z"/>
<path id="bookbgtop" class="st3" d="M569.2,305.2h-1.8v20.1h-7.6c-2.5-0.3-10.4-5.1-13.2-2c-2.8-3-10.7,1.8-13.2,2
	c-1.3,0.3-7.6,0-7.6,0v-20.1h-4.3v23.6H542c0,0,1.5-3.3,4.6-3.3c3,0,4.6,3.3,4.6,3.3h20.6v-23.6H569.2L569.2,305.2z"/>
<path class="st2" d="M564.4,301.6c0,0-4.6,0.3-6.9-0.8c-2-0.8-6.6-2.3-9.7-0.5v3l0.3-0.3c1.8-2.5,5.6-1.5,8.6-0.3
	c2.5,1,7.1,1,7.6,0.8h1v19.6h-5.3c-0.5,0-1.8-0.5-2.8-1H557c-2.8-1-6.1-2.3-9.1-2v2.3c3.6-1,9.7,2.5,11.9,2.8c1.3,0.3,7.6,0,7.6,0
	v-23.6L564.4,301.6L564.4,301.6z M535.7,322.2c-1,0.5-2.3,1-2.8,1h-5.3v-19.6h1c0.3,0,4.8,0.3,7.6-0.8c3-1.3,6.9-2,8.6,0.3
	c0,0,0,0.3,0.3,0.3v-3c-3-2-7.6-0.5-9.7,0.5c-2.3,1-6.9,0.8-6.9,0.8h-3v23.6h7.6c2.3-0.3,8.4-3.8,11.7-2.8v-2
	C542,319.7,538.5,321.2,535.7,322.2L535.7,322.2z"/>
<path id="bookspine_1_top" class="st3" d="M547.9,305.2v-4.8c-0.5,0.3-1,0.8-1.5,1.5c-0.5-0.8-1-1-1.5-1.5v21.8l1.5,0.8
	c0.5-0.5,1-0.8,1.5-0.8V305.2z"/>
<path class="st2" d="M536.2,302.6c-2.8,1-7.4,1-7.6,0.8h-1v19.8h5.3c0.5,0,1.8-0.5,2.8-1c2.8-1,6.4-2.3,9.1-2v-16.8
	c0-0.3-0.3-0.3-0.3-0.3C543,300.6,539.2,301.6,536.2,302.6L536.2,302.6z M564.4,303.7c-0.5,0-5.1,0.3-7.6-0.8c-3-1.3-6.9-2-8.6,0.3
	l-0.3,0.3v16.8c2.8-0.5,6.4,0.8,9.1,2h0.3c1,0.5,2.3,1,2.8,1h5.3v-19.6H564.4L564.4,303.7z"/>
<path class="st2" d="M508.5,312.8l1-4.3l-4.1,0.8l-0.8-2l-2.8,3.3l0.8-7.6l-2.3,2l-2.8-5.3l-2.8,5.3l-2.3-2l0.8,7.6l-2.8-3.3l-0.8,2
	l-4.1-0.8l1,4.3l-1.8,0.5l6.6,6.1l-1.3,2l6.4-0.5c0,0,0.8,2,0.5,4.6c0,1.8-1,2.3-1.5,2.5h4.3c-0.5-0.3-1.5-0.8-1.5-2.5
	c0-2.5,0.5-4.6,0.5-4.6l6.4,0.5l-1.3-2l6.6-6.1L508.5,312.8L508.5,312.8z M601.5,321.4l-1.3-2l6.6-6.1l-1.8-0.5l1-4.3l-4.1,0.8
	l-0.8-2l-2.8,3.3l0.8-7.6l-2.3,2l-2.8-5.3l-2.8,5.3l-2.3-2l0.8,7.6l-2.8-3.3l-0.8,2l-4.1-0.8l1,4.3l-1.8,0.5l6.6,6.1l-1.3,2l6.4-0.5
	c0,0,0.5,2,0.5,4.6c0,1.8-1,2.3-1.5,2.5h4.3c-0.5-0.3-1.5-0.8-1.5-2.5c-0.3-2.5,0.5-4.6,0.5-4.6L601.5,321.4L601.5,321.4z"/>
</svg>
