<?xml version="1.0" encoding="UTF-8"?>
<svg version="1.1" xmlns="http://www.w3.org/2000/svg" width="200" height="200">
<path d="M0 0 C66 0 132 0 200 0 C200 66 200 132 200 200 C134 200 68 200 0 200 C0 134 0 68 0 0 Z " fill="#FCFEFD" transform="translate(0,0)"/>
<path d="M0 0 C5.42335689 4.64859162 9.11482356 10.43248959 10.48828125 17.51953125 C10.97661774 26.37935041 7.0562228 32.88558701 1.32177734 39.36523438 C-2.09291238 43.08947445 -5.6516839 46.66481834 -9.2421875 50.21875 C-9.77577881 50.74742676 -10.30937012 51.27610352 -10.85913086 51.82080078 C-11.87962834 52.82567116 -12.90612125 53.82450473 -13.93969727 54.81591797 C-18.50314457 59.2633916 -21.95630418 63.73517879 -23.625 69.9375 C-23.86089844 70.78957031 -24.09679687 71.64164062 -24.33984375 72.51953125 C-24.66662109 73.74736328 -24.66662109 73.74736328 -25 75 C-25.39340526 76.37569667 -25.78889836 77.75079995 -26.1875 79.125 C-26.455625 80.07375 -26.72375 81.0225 -27 82 C-28.586149 79.6207765 -29.87756634 77.33848129 -31.1875 74.8125 C-33.84918643 69.95133616 -37.2057164 66.0129743 -41 62 C-40.46375 62.61875 -39.9275 63.2375 -39.375 63.875 C-30.79730354 75.16144272 -26.62842037 84.66075842 -28 99 C-30.5264824 111.39179464 -37.69154562 121.70214782 -48 129 C-50.26953125 129.71484375 -50.26953125 129.71484375 -52 130 C-51.34 129.01 -50.68 128.02 -50 127 C-49.34 127 -48.68 127 -48 127 C-47.71898437 126.40960938 -47.43796875 125.81921875 -47.1484375 125.2109375 C-46.10094061 123.19432784 -44.93773963 121.47286916 -43.625 119.625 C-36.35895881 107.98208533 -35.28417259 93.99598048 -38.125 80.8125 C-41.06080752 70.50973623 -46.60381464 59.75623115 -56.06640625 54.19921875 C-59.6768932 52.37985605 -63.31888557 50.66969579 -67 49 C-76.42224645 44.66790474 -84.46785915 40.92488142 -89.9375 31.75 C-92.40077579 23.05608546 -91.04654697 15.35986996 -88 7 C-87.55269531 7.42152344 -87.10539062 7.84304687 -86.64453125 8.27734375 C-82.06797544 12.42454251 -79.2623688 14 -73 14 C-69.26911701 12.90803425 -65.71480254 11.47782962 -62.125 10 C-44.70794071 3.07452242 -27.93109703 5.94537624 -11 13 C-10.67 12.34 -10.34 11.68 -10 11 C-8.35 11 -6.7 11 -5 11 C-4.731875 10.29875 -4.46375 9.5975 -4.1875 8.875 C-2.9318551 5.8350176 -1.49764877 2.9272226 0 0 Z " fill="#F5FCF9" transform="translate(139,25)"/>
<path d="M0 0 C2 2 2 2 3.125 4.6875 C8.56668077 14.30113603 18.40151056 17.73848916 28.15625 21.72851562 C39.81196305 26.73958923 47.15902353 34.68263129 52 46.42578125 C56.99542498 60.71557866 56.11108937 75.25746528 50 89 C47.15417813 94.14534758 44.58401378 98.67841878 39 101 C39 100.34 39 99.68 39 99 C38.01 98.67 37.02 98.34 36 98 C37.98 97.505 37.98 97.505 40 97 C38.56720703 96.58041016 38.56720703 96.58041016 37.10546875 96.15234375 C28.51738909 93.5307781 21.31376037 90.35427167 14 85 C12.948125 84.236875 11.89625 83.47375 10.8125 82.6875 C-1.32043758 71.09380409 -8.77215524 55.95862646 -9.35131836 39.07006836 C-9.47794117 28.00166801 -7.33157722 18.62331817 -1.890625 8.9609375 C-1.59671875 8.31382813 -1.3028125 7.66671875 -1 7 C-1.33 6.34 -1.66 5.68 -2 5 C-2.66 5.66 -3.32 6.32 -4 7 C-4 5.68 -4 4.36 -4 3 C-2.68 3 -1.36 3 0 3 C0 2.01 0 1.02 0 0 Z " fill="#FBFEFC" transform="translate(48,53)"/>
<path d="M0 0 C0.33 0 0.66 0 1 0 C1.02715383 1.74991334 1.04646551 3.49994945 1.0625 5.25 C1.07410156 6.22453125 1.08570313 7.1990625 1.09765625 8.203125 C1 11 1 11 0.2890625 12.9453125 C-0.18260494 16.29797568 1.72218821 18.78814466 3.3125 21.625 C9.98555037 34.34196955 11.03459664 48.42128109 7.375 62.3125 C2.11464752 78.47846127 -7.62203333 91.33774147 -22.65625 99.4296875 C-30.39110839 103.18598367 -38.52937771 105.50259639 -47.0625 106.5625 C-50.18251805 106.81395562 -50.18251805 106.81395562 -53 109 C-53.66 108.34 -54.32 107.68 -55 107 C-54.34644531 106.41605469 -54.34644531 106.41605469 -53.6796875 105.8203125 C-44.08977343 96.81160534 -39.0486728 86.2642697 -38.5 73.125 C-38.78662219 61.64765074 -43.79060267 53.55321446 -51 45 C-51.66 44.01 -52.32 43.02 -53 42 C-45.05696631 45.45878272 -40.73311813 53.56817036 -37 61 C-36.81824219 60.20335937 -36.63648437 59.40671875 -36.44921875 58.5859375 C-36.19785156 57.52632812 -35.94648437 56.46671875 -35.6875 55.375 C-35.32205078 53.80878906 -35.32205078 53.80878906 -34.94921875 52.2109375 C-33.3310018 46.73696907 -30.98166856 42.62162155 -27.125 38.4375 C-26.33738281 37.5815625 -25.54976562 36.725625 -24.73828125 35.84375 C-22.21046677 33.2185732 -19.63191314 30.66229213 -17.02612305 28.11547852 C-8.57494038 19.84008623 -1.6910917 12.11949049 0 0 Z " fill="#F8FDFA" transform="translate(149,44)"/>
<path d="M0 0 C5.89170819 5.59464727 10.16522219 11.65831682 10.625 20 C9.80083325 32.90524526 -0.61824567 41.6826494 -9.2421875 50.21875 C-9.77577881 50.74742676 -10.30937012 51.27610352 -10.85913086 51.82080078 C-11.87962834 52.82567116 -12.90612125 53.82450473 -13.93969727 54.81591797 C-18.50314457 59.2633916 -21.95630418 63.73517879 -23.625 69.9375 C-23.86089844 70.78957031 -24.09679687 71.64164062 -24.33984375 72.51953125 C-24.66662109 73.74736328 -24.66662109 73.74736328 -25 75 C-25.39340526 76.37569667 -25.78889836 77.75079995 -26.1875 79.125 C-26.455625 80.07375 -26.72375 81.0225 -27 82 C-28.586149 79.6207765 -29.87756634 77.33848129 -31.1875 74.8125 C-33.84918643 69.95133616 -37.2057164 66.0129743 -41 62 C-40.46375 62.61875 -39.9275 63.2375 -39.375 63.875 C-30.79730354 75.16144272 -26.62842037 84.66075842 -28 99 C-30.5264824 111.39179464 -37.69154562 121.70214782 -48 129 C-50.26953125 129.71484375 -50.26953125 129.71484375 -52 130 C-51.34 129.01 -50.68 128.02 -50 127 C-49.34 127 -48.68 127 -48 127 C-47.71898437 126.40960938 -47.43796875 125.81921875 -47.1484375 125.2109375 C-46.10094061 123.19432784 -44.93773963 121.47286916 -43.625 119.625 C-36.35895881 107.98208533 -35.28417259 93.99598048 -38.125 80.8125 C-41.06080752 70.50973623 -46.60381464 59.75623115 -56.06640625 54.19921875 C-59.6768932 52.37985605 -63.31888557 50.66969579 -67 49 C-76.42224645 44.66790474 -84.46785915 40.92488142 -89.9375 31.75 C-92.40077579 23.05608546 -91.04654697 15.35986996 -88 7 C-87.13375 7.825 -86.2675 8.65 -85.375 9.5 C-81.33570427 13.02505274 -76.7598039 15.48304745 -71.97607422 17.84375 C-66.9996135 20.47002461 -65.21545693 22.9880717 -63 28 C-62.57421875 30.984375 -62.57421875 30.984375 -62.6875 33.75 C-62.71199219 34.67296875 -62.73648438 35.5959375 -62.76171875 36.546875 C-63 39 -63 39 -64 42 C-69.51080969 40.69480823 -73.43463315 37.75041817 -77.92578125 34.4609375 C-79.71341588 32.90402723 -79.71341588 32.90402723 -81 33 C-73.15638403 40.48708798 -63.95252988 44.36588842 -53.875 48 C-45.12850192 51.16373685 -37.24831974 54.91857096 -31 62 C-30.71769531 61.53851563 -30.43539062 61.07703125 -30.14453125 60.6015625 C-24.89379372 52.81014552 -17.24938455 47.59884873 -9.58984375 42.34765625 C-4.34212321 38.69750767 -1.227457 34.50134716 2 29 C1.01 30.485 1.01 30.485 0 32 C-1.32381517 33.67423683 -2.65576661 35.34211215 -4 37 C-6.39550925 36.33916986 -7.69084131 35.54070432 -8.93359375 33.3671875 C-10.86874436 28.64504965 -11.87768327 24.10802822 -11 19 C-9.48725445 15.46051761 -7.53773396 12.25937299 -5.5 9 C-4.97535156 8.12988281 -4.45070313 7.25976562 -3.91015625 6.36328125 C-2.62211121 4.23215219 -1.31882814 2.11216576 0 0 Z " fill="#0E8946" transform="translate(139,25)"/>
<path d="M0 0 C0.86625 0.825 1.7325 1.65 2.625 2.5 C6.66429573 6.02505274 11.2401961 8.48304745 16.02392578 10.84375 C21.0003865 13.47002461 22.78454307 15.9880717 25 21 C25.42578125 23.984375 25.42578125 23.984375 25.3125 26.75 C25.28800781 27.67296875 25.26351562 28.5959375 25.23828125 29.546875 C25 32 25 32 24 35 C18.48919031 33.69480823 14.56536685 30.75041817 10.07421875 27.4609375 C8.28658412 25.90402723 8.28658412 25.90402723 7 26 C16.3339133 34.90964451 27.97415248 38.97952435 40 43 C38.35 44.65 36.7 46.3 35 48 C4.84006093 36.11881188 4.84006093 36.11881188 -1.9375 24.75 C-4.40077579 16.05608546 -3.04654697 8.35986996 0 0 Z " fill="#0FA24A" transform="translate(51,32)"/>
<path d="M0 0 C2.8203125 -0.29296875 2.8203125 -0.29296875 6.125 -0.1875 C7.76855469 -0.14689453 7.76855469 -0.14689453 9.4453125 -0.10546875 C10.28835937 -0.07066406 11.13140625 -0.03585938 12 0 C12 0.99 12 1.98 12 3 C13.485 3.495 13.485 3.495 15 4 C14.67 6.31 14.34 8.62 14 11 C13.34 11 12.68 11 12 11 C12 11.66 12 12.32 12 13 C12.66 13 13.32 13 14 13 C14 15.31 14 17.62 14 20 C14.66 20 15.32 20 16 20 C16 20.66 16 21.32 16 22 C14.35 22 12.7 22 11 22 C9.64560332 19.29120665 9.93498549 16.99066732 10 14 C8.35 14 6.7 14 5 14 C5 16.64 5 19.28 5 22 C2.30517531 22.07699499 -0.03994488 21.99163944 -2.6875 21.4375 C-5.01534007 20.75530115 -5.01534007 20.75530115 -7 22 C-10.83191838 22.42576871 -12.52949683 22.30321315 -15.8125 20.1875 C-18.77671143 17.22328857 -18.96562741 15.34945465 -19.375 11.1875 C-19.31698171 8.04871072 -18.8216129 6.07348668 -17 3.5 C-13.52888717 0.60740597 -13.52888717 0.60740597 -9.9375 0.5 C-6.66969831 0.91495894 -4.69141562 1.20572292 -2 3 C-1.34 2.01 -0.68 1.02 0 0 Z " fill="#D3F3E4" transform="translate(119,161)"/>
<path d="M0 0 C3.5548977 2.3699318 3.81390146 3.60339534 5.125 7.5625 C6.08372795 11.05838797 6.08372795 11.05838797 8 14 C8.203125 16.21484375 8.203125 16.21484375 8.25 18.9375 C8.27578125 19.83339844 8.3015625 20.72929688 8.328125 21.65234375 C8.21984375 22.42707031 8.1115625 23.20179687 8 24 C7.01 24.66 6.02 25.32 5 26 C4.67 25.01 4.34 24.02 4 23 C3.34 23 2.68 23 2 23 C1.90203125 23.59167969 1.8040625 24.18335937 1.703125 24.79296875 C0.74230199 29.87042139 -0.2985201 33.17513744 -4 37 C-6.39550925 36.33916986 -7.69084131 35.54070432 -8.93359375 33.3671875 C-10.86874436 28.64504965 -11.87768327 24.10802822 -11 19 C-9.48725445 15.46051761 -7.53773396 12.25937299 -5.5 9 C-4.97535156 8.12988281 -4.45070312 7.25976562 -3.91015625 6.36328125 C-2.62211121 4.23215219 -1.31882814 2.11216576 0 0 Z " fill="#0B8D45" transform="translate(139,25)"/>
<path d="M0 0 C8.32457815 7.35833247 11.51636942 20.47601996 12.38671875 31.125 C13.21860961 46.83753325 8.60020751 61.48067158 -1 74 C-1.57105469 74.77472656 -2.14210937 75.54945313 -2.73046875 76.34765625 C-12.39391573 88.3600008 -27.84402676 96.01869353 -43 98 C-44.62394748 98.0620775 -46.25005297 98.08712041 -47.875 98.0625 C-49.04675781 98.04896484 -49.04675781 98.04896484 -50.2421875 98.03515625 C-50.82226562 98.02355469 -51.40234375 98.01195312 -52 98 C-50 95 -50 95 -46.7265625 94.2265625 C-45.36051259 94.01843296 -43.99321469 93.81838779 -42.625 93.625 C-31.47127915 91.77918622 -22.07145753 87.80794605 -13 81 C-12.17371094 80.38382812 -11.34742188 79.76765625 -10.49609375 79.1328125 C-0.54168587 70.62716821 5.90501807 56.79725397 8 44 C9.02970685 30.17653818 6.97895184 18.76271468 0.109375 6.59375 C-1 4 -1 4 -0.671875 1.65625 C-0.33929688 0.83640625 -0.33929688 0.83640625 0 0 Z " fill="#2C7E57" transform="translate(149,55)"/>
<path d="M0 0 C3.02508145 1.73602105 5.41790069 3.83580137 7 7 C7.04227317 11.37950088 6.78687799 14.95082935 4.125 18.5 C0.19682523 21.27282925 -3.29896379 21.48631409 -8 21 C-10.63016161 18.8272578 -12.47336894 17.05326212 -14 14 C-14.5811138 6.91041162 -14.5811138 6.91041162 -12.125 3.0625 C-8.5135633 -0.44271798 -4.88427301 -0.83367925 0 0 Z " fill="#0B9146" transform="translate(110,55)"/>
<path d="M0 0 C0.66 0.33 1.32 0.66 2 1 C0.89936047 4.57707847 -0.41071445 7.93230311 -2 11.3125 C-7.73122734 24.22914669 -7.92920168 39.76204364 -3 53 C2.98299748 67.41408385 10.17782676 77.21486419 24 85 C24.6909375 85.40089844 25.381875 85.80179687 26.09375 86.21484375 C31.43912664 89.11755852 37.11331358 90.57161285 43 92 C42.67 92.66 42.34 93.32 42 94 C31.02829551 95.2467846 21.30595288 88.43275721 13 82 C12.38640625 81.56300781 11.7728125 81.12601562 11.140625 80.67578125 C-0.69049001 71.63963149 -7.2931169 56.24419809 -10 42 C-10.27802576 39.24255305 -10.33491482 36.5201518 -10.3125 33.75 C-10.30686035 33.00983643 -10.3012207 32.26967285 -10.29541016 31.50708008 C-10.07047815 21.23035998 -7.59268645 7.59268645 0 0 Z " fill="#2D975D" transform="translate(46,57)"/>
<path d="M0 0 C3.63354502 0.94501473 4.93542865 2.37566977 6.9375 5.50390625 C7.78742273 9.69082067 7.81660675 13.54043876 6.05078125 17.484375 C3.83601756 20.58210096 2.15262694 21.46549073 -1.5625 22.12890625 C-5.53495401 21.41953946 -7.23481707 20.33158918 -10.0625 17.50390625 C-11.81264069 14.00362486 -11.61267114 10.32311751 -11.0625 6.50390625 C-8.86806926 1.44851206 -5.36199973 -0.47729922 0 0 Z " fill="#249359" transform="translate(148.0625,161.49609375)"/>
<path d="M0 0 C10.625 -0.25 10.625 -0.25 14 2 C13.67 4.31 13.34 6.62 13 9 C12.34 9 11.68 9 11 9 C11 9.66 11 10.32 11 11 C11.66 11 12.32 11 13 11 C13 13.31 13 15.62 13 18 C13.66 18 14.32 18 15 18 C15 18.66 15 19.32 15 20 C13.35 20 11.7 20 10 20 C8.64560332 17.29120665 8.93498549 14.99066732 9 12 C7.35 12 5.7 12 4 12 C4 14.64 4 17.28 4 20 C2.68 20 1.36 20 0 20 C0 13.4 0 6.8 0 0 Z " fill="#2A985A" transform="translate(120,163)"/>
<path d="M0 0 C1.921875 0.02734375 1.921875 0.02734375 4 1 C5.703125 3.50390625 5.703125 3.50390625 7.25 6.5625 C7.77078125 7.57441406 8.2915625 8.58632812 8.828125 9.62890625 C9.21484375 10.41136719 9.6015625 11.19382813 10 12 C10.33 8.04 10.66 4.08 11 0 C11.99 0.33 12.98 0.66 14 1 C14.02689449 3.95839355 14.04678741 6.91654427 14.0625 9.875 C14.07087891 10.71675781 14.07925781 11.55851563 14.08789062 12.42578125 C14.09272461 13.63427734 14.09272461 13.63427734 14.09765625 14.8671875 C14.10551147 15.98262939 14.10551147 15.98262939 14.11352539 17.12060547 C14 19 14 19 13 21 C12.01 21 11.02 21 10 21 C8.17578125 18.375 8.17578125 18.375 6.3125 15 C5.68988281 13.88625 5.06726563 12.7725 4.42578125 11.625 C3.95527344 10.75875 3.48476563 9.8925 3 9 C2.67 12.96 2.34 16.92 2 21 C0.68 20.34 -0.64 19.68 -2 19 C-2.05380578 16.20807795 -2.09357669 13.4171859 -2.125 10.625 C-2.14175781 9.8309375 -2.15851562 9.036875 -2.17578125 8.21875 C-2.19335473 6.14507985 -2.10335168 4.07116759 -2 2 C-1.34 1.34 -0.68 0.68 0 0 Z " fill="#1E8751" transform="translate(20,162)"/>
<path d="M0 0 C0 1.32 0 2.64 0 4 C-0.89460938 3.66226563 -1.78921875 3.32453125 -2.7109375 2.9765625 C-20.78546801 -3.69058841 -35.8317823 -5.01056227 -54 2 C-55.0828125 2.57105469 -56.165625 3.14210938 -57.28125 3.73046875 C-60 5 -60 5 -63 4 C-58.38455918 -1.26518735 -52.46493517 -2.78501616 -46 -5 C-45.30648437 -5.25136719 -44.61296875 -5.50273437 -43.8984375 -5.76171875 C-28.8306115 -10.44137396 -14.02160967 -5.22569236 0 0 Z " fill="#2EA05B" transform="translate(128,35)"/>
<path d="M0 0 C10.49036431 -0.37024815 10.49036431 -0.37024815 12.828125 1.328125 C14.67772302 3.96688484 14.44692969 5.87149219 14 9 C12.375 11.375 12.375 11.375 10 13 C6.75 13.25 6.75 13.25 4 13 C4 14.98 4 16.96 4 19 C2.02 19.99 2.02 19.99 0 21 C0 14.07 0 7.14 0 0 Z " fill="#157C48" transform="translate(177,162)"/>
<path d="M0 0 C3.875 0.5625 3.875 0.5625 5.9375 1.75 C7.25635516 4.29978665 6.6725116 5.87996098 5.875 8.5625 C5.215 7.5725 4.555 6.5825 3.875 5.5625 C0.83304573 5.22909529 0.83304573 5.22909529 -2.125 5.5625 C-3.35767348 6.57086062 -3.35767348 6.57086062 -3.22265625 8.62890625 C-3.21105469 9.45261719 -3.19945313 10.27632812 -3.1875 11.125 C-3.17847656 11.95128906 -3.16945313 12.77757812 -3.16015625 13.62890625 C-3.14855469 14.26699219 -3.13695313 14.90507812 -3.125 15.5625 C-0.815 16.2225 1.495 16.8825 3.875 17.5625 C3.875 16.2425 3.875 14.9225 3.875 13.5625 C3.215 13.5625 2.555 13.5625 1.875 13.5625 C2.205 12.5725 2.535 11.5825 2.875 10.5625 C4.525 10.5625 6.175 10.5625 7.875 10.5625 C8.1875 13.8125 8.1875 13.8125 7.875 17.5625 C5.31796344 20.49557135 3.70917929 21.42347012 -0.125 22.0625 C-3.83974337 21.44337611 -5.4821354 20.2053646 -8.125 17.5625 C-9.57348902 13.21703293 -10.20438911 8.95834031 -8.2890625 4.70703125 C-5.96272305 1.42049129 -3.90324191 0.16563573 0 0 Z " fill="#1F9C5A" transform="translate(109.125,161.4375)"/>
<path d="M0 0 C2 2 2 2 2.16015625 5.58984375 C2.13753005 7.03925145 2.10455466 8.48852587 2.0625 9.9375 C1.86183001 15.54196398 1.86183001 15.54196398 3 21 C4.90034653 19.40052324 5.89767037 18.47166391 6.43237305 16.00708008 C6.47164917 14.89949341 6.47164917 14.89949341 6.51171875 13.76953125 C6.54716797 12.96708984 6.58261719 12.16464844 6.61914062 11.33789062 C6.64169922 10.50451172 6.66425781 9.67113281 6.6875 8.8125 C6.72166016 7.96751953 6.75582031 7.12253906 6.79101562 6.25195312 C6.87341471 4.16843351 6.93838645 2.08423784 7 0 C7.66 0.33 8.32 0.66 9 1 C9.75176768 15.11652642 7.33885702 26.1107468 -2 37 C-10.00046264 45.17614847 -10.00046264 45.17614847 -15 46 C-14.34 45.01 -13.68 44.02 -13 43 C-12.34 43 -11.68 43 -11 43 C-10.71898438 42.40960938 -10.43796875 41.81921875 -10.1484375 41.2109375 C-9.10094061 39.19432784 -7.93773963 37.47286916 -6.625 35.625 C0.29916761 24.46825516 0.55185921 12.662103 0 0 Z " fill="#208451" transform="translate(102,109)"/>
<path d="M0 0 C0.43828125 0.36351562 0.8765625 0.72703125 1.328125 1.1015625 C11.1026644 8.849673 22.29750821 13.08762849 34 17 C32.35 18.65 30.7 20.3 29 22 C21.98326405 19.23583129 15.14281479 16.19760473 8.375 12.875 C7.67632812 12.53855469 6.97765625 12.20210937 6.2578125 11.85546875 C2.89336098 10.17986592 1.12498216 9.18747324 -1 6 C-0.01 5.67 0.98 5.34 2 5 C1.34 3.35 0.68 1.7 0 0 Z " fill="#209652" transform="translate(57,58)"/>
<path d="M0 0 C0.99 0 1.98 0 3 0 C3.33 5.61 3.66 11.22 4 17 C5.98 16.34 7.96 15.68 10 15 C10.33 10.05 10.66 5.1 11 0 C11.99 0.33 12.98 0.66 14 1 C14.13572155 3.39774745 14.23436868 5.78775245 14.3125 8.1875 C14.35439453 8.86103516 14.39628906 9.53457031 14.43945312 10.22851562 C14.5352082 14.15447389 14.14149432 15.81831937 11.703125 18.94921875 C9 21 9 21 5.4375 21.625 C2 21 2 21 -0.19140625 18.91015625 C-2.44073691 15.2908229 -2.47307735 13.04320005 -2.375 8.8125 C-2.36210937 7.58144531 -2.34921875 6.35039062 -2.3359375 5.08203125 C-2 2 -2 2 0 0 Z " fill="#2E9E63" transform="translate(160,162)"/>
<path d="M0 0 C4.32626046 3.72953488 6.49733513 7.74906961 7.359375 13.32421875 C7.96645622 24.06618364 2.14828496 31.30402386 -4.62109375 39.06640625 C-7.47208809 41.38371692 -9.38837533 41.64317727 -13 42 C-15.01089078 42.63305821 -17.01463373 43.29094062 -19 44 C-16.57242438 41.37012641 -14.05730651 39.32916291 -11.125 37.3125 C-6.57839275 33.99194415 -3.71791703 29.89019162 -1 25 C-0.94729537 23.63106761 -0.94729537 23.63106761 -2 21 C-1.67 20.34 -1.34 19.68 -1 19 C-0.34 19 0.32 19 1 19 C1.33 18.34 1.66 17.68 2 17 C2.33 18.32 2.66 19.64 3 21 C4.61253453 19.38746547 4.24791423 17.66400957 4.3125 15.4375 C4.29221594 10.72483662 3.2516332 7.62082293 0.875 3.59375 C0 2 0 2 0 0 Z " fill="#19884E" transform="translate(142,29)"/>
<path d="M0 0 C1.79133978 -0.05391993 3.58313899 -0.09275571 5.375 -0.125 C6.37273437 -0.14820313 7.37046875 -0.17140625 8.3984375 -0.1953125 C11 0 11 0 13 2 C13.25 5 13.25 5 13 8 C12.34 8.66 11.68 9.32 11 10 C11.495 10.391875 11.99 10.78375 12.5 11.1875 C14 13 14 13 14.375 15.5 C13.92337069 18.51086208 13.42235436 19.20776767 11 21 C8.30078125 21.29296875 8.30078125 21.29296875 5.3125 21.1875 C3.82169922 21.14689453 3.82169922 21.14689453 2.30078125 21.10546875 C1.54152344 21.07066406 0.78226563 21.03585938 0 21 C0 18.03 0 15.06 0 12 C0.66 11.67 1.32 11.34 2 11 C2.66 12.98 3.32 14.96 4 17 C5.65 17 7.3 17 9 17 C8.65555119 14.52733235 8.65555119 14.52733235 8 12 C7.34 11.67 6.68 11.34 6 11 C6.309375 10.4225 6.61875 9.845 6.9375 9.25 C7.92583364 7.15705816 8.5168613 5.25464725 9 3 C7.02 3 5.04 3 3 3 C3 4.65 3 6.3 3 8 C2.01 8 1.02 8 0 8 C0 5.36 0 2.72 0 0 Z " fill="#167F4A" transform="translate(60,162)"/>
<path d="M0 0 C3.96 0 7.92 0 12 0 C11.47729735 4.90309806 9.9987369 8.18388507 7.4375 12.375 C6.47650391 13.96441406 6.47650391 13.96441406 5.49609375 15.5859375 C5.00238281 16.38257813 4.50867188 17.17921875 4 18 C6.64 18 9.28 18 12 18 C11.67 18.99 11.34 19.98 11 21 C7.04 21 3.08 21 -1 21 C-2 17 -2 17 -0.34765625 13.765625 C0.40143605 12.5856389 1.16368364 11.41392213 1.9375 10.25 C2.32357422 9.64800781 2.70964844 9.04601562 3.10742188 8.42578125 C4.06045415 6.94328661 5.02878012 5.47064367 6 4 C3.69 3.67 1.38 3.34 -1 3 C-0.67 2.01 -0.34 1.02 0 0 Z " fill="#198A52" transform="translate(79,162)"/>
<path d="M0 0 C7.65562199 6.76702301 11.48580832 19.2922158 12.14794922 29.21777344 C12.24730104 31.6467031 12.29547371 34.06913178 12.3125 36.5 C12.32095947 37.66716553 12.32095947 37.66716553 12.32958984 38.85791016 C12.28013305 42.69626018 12.16931779 45.75034467 10 49 C10.02320313 47.90300781 10.04640625 46.80601563 10.0703125 45.67578125 C10.08907921 44.221361 10.10727844 42.76693336 10.125 41.3125 C10.14175781 40.59126953 10.15851563 39.87003906 10.17578125 39.12695312 C10.21447323 34.89018088 9.76089108 31.83025943 8 28 C7.55994775 26.15124389 7.14456239 24.29649587 6.75 22.4375 C5.36890362 16.61819287 3.04052102 11.7860658 0.109375 6.59375 C-1 4 -1 4 -0.671875 1.65625 C-0.45015625 1.1096875 -0.2284375 0.563125 0 0 Z " fill="#398C65" transform="translate(149,55)"/>
<path d="M0 0 C0.33 0 0.66 0 1 0 C1.33 2.31 1.66 4.62 2 7 C2.33 7 2.66 7 3 7 C3.33 5.35 3.66 3.7 4 2 C5.98 2 7.96 2 10 2 C9.45276317 5.37462715 8.9451 7.08235 7 10 C8.32 10.66 9.64 11.32 11 12 C10.67 13.65 10.34 15.3 10 17 C8.35 17 6.7 17 5 17 C4.01 15.02 3.02 13.04 2 11 C1.67 13.64 1.34 16.28 1 19 C0.67 19 0.34 19 0 19 C0 12.73 0 6.46 0 0 Z " fill="#41A96F" transform="translate(59,163)"/>
<path d="M0 0 C1.98 0 3.96 0 6 0 C7.00736628 2.93502595 8.00460504 5.87339461 9 8.8125 C9.28617188 9.64587891 9.57234375 10.47925781 9.8671875 11.33789062 C10.13789062 12.14033203 10.40859375 12.94277344 10.6875 13.76953125 C10.93886719 14.50792236 11.19023438 15.24631348 11.44921875 16.00708008 C12 18 12 18 12 21 C9.6875 20.9375 9.6875 20.9375 7 20 C5.73416523 17.62023063 4.87813501 15.5212433 4 13 C3.27403278 11.24867033 2.54475611 9.49870953 1.8125 7.75 C0.60733293 4.84315508 0 3.17841017 0 0 Z " fill="#298158" transform="translate(44,162)"/>
<path d="M0 0 C2.97 0.495 2.97 0.495 6 1 C6.05807043 4.10408807 6.09361914 7.2080364 6.125 10.3125 C6.14175781 11.19357422 6.15851563 12.07464844 6.17578125 12.98242188 C6.18222656 13.82998047 6.18867187 14.67753906 6.1953125 15.55078125 C6.20578613 16.33106689 6.21625977 17.11135254 6.22705078 17.9152832 C6 20 6 20 4 23 C3.34 23 2.68 23 2 23 C2 22.34 2 21.68 2 21 C1.34 20.67 0.68 20.34 0 20 C0 13.4 0 6.8 0 0 Z " fill="#048241" transform="translate(103,107)"/>
<path d="M0 0 C1.77049689 -0.05410687 3.54146849 -0.09284119 5.3125 -0.125 C6.29863281 -0.14820313 7.28476563 -0.17140625 8.30078125 -0.1953125 C11 0 11 0 14 2 C13.67 4.31 13.34 6.62 13 9 C12.34 9 11.68 9 11 9 C11 9.66 11 10.32 11 11 C11.66 11 12.32 11 13 11 C13 13.31 13 15.62 13 18 C13.66 18 14.32 18 15 18 C15 18.66 15 19.32 15 20 C13.35 20 11.7 20 10 20 C9.34 17.36 8.68 14.72 8 12 C6.68 11.67 5.36 11.34 4 11 C4 10.34 4 9.68 4 9 C5.65 8.34 7.3 7.68 9 7 C8.67 5.68 8.34 4.36 8 3 C5.36 2.34 2.72 1.68 0 1 C0 0.67 0 0.34 0 0 Z " fill="#1E8350" transform="translate(120,163)"/>
<path d="M0 0 C2.5 0.25 2.5 0.25 4.5 2.25 C4.765625 4.34375 4.765625 4.34375 4.75 6.75 C4.75515625 7.5440625 4.7603125 8.338125 4.765625 9.15625 C4.5 11.25 4.5 11.25 2.5 13.25 C0 13.5 0 13.5 -2.5 13.25 C-4.5 11.25 -4.5 11.25 -4.765625 9.15625 C-4.75789062 7.96515625 -4.75789062 7.96515625 -4.75 6.75 C-4.75515625 5.9559375 -4.7603125 5.161875 -4.765625 4.34375 C-4.35119662 1.07707925 -3.20036774 0.32003677 0 0 Z " fill="#EEFDF5" transform="translate(146.5,165.75)"/>
<path d="M0 0 C0.66 0.33 1.32 0.66 2 1 C0.92629976 4.4895258 -0.34095557 7.72738978 -1.9375 11 C-4.70598236 17.04503826 -5.77947417 23.49977531 -7 30 C-7.66 30 -8.32 30 -9 30 C-9 33.96 -9 37.92 -9 42 C-9.33 42 -9.66 42 -10 42 C-10.49351192 26.57318287 -8.77023351 14.70259742 -1 1 C-0.67 0.67 -0.34 0.34 0 0 Z " fill="#32A05F" transform="translate(46,57)"/>
<path d="M0 0 C0.66 0.33 1.32 0.66 2 1 C2.4699438 14.49783037 0.61025363 28.09367873 -8 39 C-8.66 39 -9.32 39 -10 39 C-9.39596234 35.25496651 -8.29761665 32.27091866 -6.625 28.875 C-2.24039542 19.40881613 -0.52577652 10.38861881 0 0 Z " fill="#20794F" transform="translate(158,87)"/>
<path d="M0 0 C0.67804687 0.44730469 1.35609375 0.89460937 2.0546875 1.35546875 C11.75562526 7.65704743 20.6903061 12.35533774 32 15 C31.67 15.66 31.34 16.32 31 17 C20.10270435 18.23832905 10.20838758 11.49149377 2 5 C1.34 4.34 0.68 3.68 0 3 C0 2.01 0 1.02 0 0 Z " fill="#31885D" transform="translate(57,134)"/>
<path d="M0 0 C1.32 0.33 2.64 0.66 4 1 C3.34 7.6 2.68 14.2 2 21 C0.68 20.34 -0.64 19.68 -2 19 C-2.05380578 16.20807795 -2.09357669 13.4171859 -2.125 10.625 C-2.14175781 9.8309375 -2.15851562 9.036875 -2.17578125 8.21875 C-2.19335473 6.14507985 -2.10335168 4.07116759 -2 2 C-1.34 1.34 -0.68 0.68 0 0 Z " fill="#33A565" transform="translate(20,162)"/>
<path d="M0 0 C2.97 0.99 5.94 1.98 9 3 C9.625 5.375 9.625 5.375 10 8 C8 10 8 10 5.375 10.125 C4.59125 10.08375 3.8075 10.0425 3 10 C2.67 8.02 2.34 6.04 2 4 C1.67 8.62 1.34 13.24 1 18 C1.66 18 2.32 18 3 18 C3 16.35 3 14.7 3 13 C3.33 13 3.66 13 4 13 C4 14.98 4 16.96 4 19 C2.02 19.99 2.02 19.99 0 21 C0 14.07 0 7.14 0 0 Z " fill="#209455" transform="translate(177,162)"/>
<path d="M0 0 C14.16125587 -0.33584006 24.77608215 2.07159818 38 7 C38 8.32 38 9.64 38 11 C37.10539062 10.66226563 36.21078125 10.32453125 35.2890625 9.9765625 C28.2672549 7.38642878 21.42268785 5.14589882 14 4 C14 3.34 14 2.68 14 2 C7.07 1.505 7.07 1.505 0 1 C0 0.67 0 0.34 0 0 Z " fill="#46A771" transform="translate(90,28)"/>
<path d="M0 0 C1.65 0 3.3 0 5 0 C5.3125 3.25 5.3125 3.25 5 7 C2.4511805 9.9236459 0.80484394 10.84909176 -3 11.5625 C-6.95890738 10.82020487 -8.43890352 9.01305468 -11 6 C-9.68 5.34 -8.36 4.68 -7 4 C-6.34 4.66 -5.68 5.32 -5 6 C-3.01178687 6.39764263 -1.01055661 6.73775349 1 7 C1 5.68 1 4.36 1 3 C0.34 3 -0.32 3 -1 3 C-0.67 2.01 -0.34 1.02 0 0 Z " fill="#2A925E" transform="translate(112,172)"/>
<path d="M0 0 C0.94875 0.04125 1.8975 0.0825 2.875 0.125 C2.875 1.775 2.875 3.425 2.875 5.125 C1.885 5.125 0.895 5.125 -0.125 5.125 C0.205 7.765 0.535 10.405 0.875 13.125 C-4 12.25 -4 12.25 -5.125 11.125 C-5.29296875 9.12890625 -5.29296875 9.12890625 -5.3125 6.6875 C-5.32667969 5.88441406 -5.34085937 5.08132812 -5.35546875 4.25390625 C-4.95233539 0.53004721 -3.56877574 0.14275103 0 0 Z " fill="#EEFCF4" transform="translate(110.125,165.875)"/>
<path d="M0 0 C0.99 0.33 1.98 0.66 3 1 C3.73046875 2.84765625 3.73046875 2.84765625 4.1875 5.0625 C4.34605469 5.79597656 4.50460938 6.52945313 4.66796875 7.28515625 C4.77753906 7.85105469 4.88710938 8.41695312 5 9 C4.01 8.67 3.02 8.34 2 8 C2 8.66 2 9.32 2 10 C1.01 10 0.02 10 -1 10 C-1.12375 10.556875 -1.2475 11.11375 -1.375 11.6875 C-2.05976855 14.22114364 -2.99133763 16.57921032 -4 19 C-4.66 18.67 -5.32 18.34 -6 18 C-5.76023438 17.24074219 -5.52046875 16.48148438 -5.2734375 15.69921875 C-4.97695313 14.70535156 -4.68046875 13.71148437 -4.375 12.6875 C-3.92253906 11.20830078 -3.92253906 11.20830078 -3.4609375 9.69921875 C-2.64569087 6.78738243 -2.64569087 6.78738243 -5 4 C-3.02 4.495 -3.02 4.495 -1 5 C-0.67 3.35 -0.34 1.7 0 0 Z " fill="#ACD2C2" transform="translate(43,165)"/>
<path d="M0 0 C10.4 3.97647059 10.4 3.97647059 12.0625 6.8125 C12.371875 7.534375 12.68125 8.25625 13 9 C14.59262221 11.0709177 16.29127527 13.02147662 18 15 C17.01 15.33 16.02 15.66 15 16 C14.67 15.34 14.34 14.68 14 14 C13.01 14.66 12.02 15.32 11 16 C10.62488281 15.34773438 10.24976562 14.69546875 9.86328125 14.0234375 C6.90134541 8.9650181 3.90963511 4.36959219 0 0 Z " fill="#198B4D" transform="translate(86,80)"/>
<path d="M0 0 C0.33 0 0.66 0 1 0 C1.33 3.3 1.66 6.6 2 10 C2.66 10 3.32 10 4 10 C4 7.36 4 4.72 4 2 C4.33 2 4.66 2 5 2 C5.144375 3.134375 5.28875 4.26875 5.4375 5.4375 C5.61171478 8.80777201 5.61171478 8.80777201 7 10 C10.63194641 10.19149081 10.63194641 10.19149081 14 9 C14.042721 10.66611905 14.04063832 12.33382885 14 14 C13 15 13 15 9.75 15.3125 C5.44249452 14.95354121 4.00888412 14.00888412 1 11 C-0.20272819 8.59454362 -0.10071472 7.05003047 -0.0625 4.375 C-0.05347656 3.55773437 -0.04445312 2.74046875 -0.03515625 1.8984375 C-0.02355469 1.27195313 -0.01195312 0.64546875 0 0 Z " fill="#319863" transform="translate(137,168)"/>
<path d="M0 0 C1.13192832 3.39578495 0.69423708 5.53917168 0 9 C-0.24018109 12.89348096 -0.23098627 16.78730821 -0.25 20.6875 C-0.270625 21.72583984 -0.29125 22.76417969 -0.3125 23.83398438 C-0.34707931 30.72823483 0.61205829 36.52860593 3 43 C2.34 43 1.68 43 1 43 C0.51490207 41.62708132 0.03724487 40.25153297 -0.4375 38.875 C-0.70433594 38.10929687 -0.97117188 37.34359375 -1.24609375 36.5546875 C-4.77851915 24.58470713 -3.73709591 11.74515856 0 0 Z " fill="#CBF6DE" transform="translate(42,70)"/>
<path d="M0 0 C0.99 0.33 1.98 0.66 3 1 C3.01417969 1.58007812 3.02835938 2.16015625 3.04296875 2.7578125 C3.41539502 8.85755082 4.67989602 11.67989602 9 16 C6.625 15.75 6.625 15.75 4 15 C2.6875 12.9375 2.6875 12.9375 2 11 C1.67 11.99 1.34 12.98 1 14 C0.34 14 -0.32 14 -1 14 C-1 11.69 -1 9.38 -1 7 C-1.66 7 -2.32 7 -3 7 C-3 6.34 -3 5.68 -3 5 C-2.34 5 -1.68 5 -1 5 C-0.67 3.35 -0.34 1.7 0 0 Z " fill="#D7F7E7" transform="translate(134,167)"/>
<path d="M0 0 C0.66 0.33 1.32 0.66 2 1 C1.67 7.27 1.34 13.54 1 20 C0.01 20.33 -0.98 20.66 -2 21 C-3.00486895 18.04329782 -4.00306024 15.08438423 -5 12.125 C-5.28617188 11.28324219 -5.57234375 10.44148437 -5.8671875 9.57421875 C-6.13789062 8.76855469 -6.40859375 7.96289062 -6.6875 7.1328125 C-6.93886719 6.38918457 -7.19023438 5.64555664 -7.44921875 4.87939453 C-8 3 -8 3 -8 1 C-7.34 1 -6.68 1 -6 1 C-4.68 5.29 -3.36 9.58 -2 14 C-1.67 14 -1.34 14 -1 14 C-0.67 9.38 -0.34 4.76 0 0 Z " fill="#DDF8EC" transform="translate(58,162)"/>
<path d="M0 0 C1.98 0 3.96 0 6 0 C6.33 4.29 6.66 8.58 7 13 C6.01 13 5.02 13 4 13 C3.32694982 11.39850114 2.66177773 9.79368971 2 8.1875 C1.62875 7.29417969 1.2575 6.40085938 0.875 5.48046875 C0 3 0 3 0 0 Z " fill="#0A8244" transform="translate(44,162)"/>
<path d="M0 0 C0.33 0 0.66 0 1 0 C1 6.93 1 13.86 1 21 C-1 20 -1 20 -1.61328125 18.3828125 C-2.13049762 15.19592374 -2.17065327 12.10283426 -2.1875 8.875 C-2.20167969 7.63492188 -2.21585938 6.39484375 -2.23046875 5.1171875 C-2 2 -2 2 0 0 Z " fill="#CEF6E2" transform="translate(176,162)"/>
<path d="M0 0 C3.96 0 7.92 0 12 0 C11.6875 2.875 11.6875 2.875 11 6 C10.01 6.66 9.02 7.32 8 8 C7.67 6.35 7.34 4.7 7 3 C4.36 3 1.72 3 -1 3 C-0.67 2.01 -0.34 1.02 0 0 Z " fill="#157D4A" transform="translate(79,162)"/>
<path d="M0 0 C0.99 0.33 1.98 0.66 3 1 C3.08153933 2.58246707 3.13943557 4.16616273 3.1875 5.75 C3.22230469 6.63171875 3.25710937 7.5134375 3.29296875 8.421875 C2.94589665 11.47610949 2.11745198 12.80564299 0 15 C-0.66 15 -1.32 15 -2 15 C-1.85973717 12.68715544 -1.71264442 10.37472409 -1.5625 8.0625 C-1.48128906 6.77472656 -1.40007812 5.48695313 -1.31640625 4.16015625 C-1 1 -1 1 0 0 Z " fill="#2A7E54" transform="translate(152,166)"/>
<path d="M0 0 C0.66 0 1.32 0 2 0 C2.33695862 2.72876308 2.66968429 5.45793163 3 8.1875 C3.09539063 8.95642578 3.19078125 9.72535156 3.2890625 10.51757812 C3.75192894 14.36928811 4.12467468 18.11170851 4 22 C3.34 22.33 2.68 22.66 2 23 C-0.48260659 15.39701733 -0.18508331 7.89688807 0 0 Z " fill="#249654" transform="translate(37,87)"/>
<path d="M0 0 C1.29315061 0.95632999 2.58446853 1.91513851 3.875 2.875 C4.59429687 3.40867188 5.31359375 3.94234375 6.0546875 4.4921875 C8 6 8 6 10 8 C8.35 7.67 6.7 7.34 5 7 C5 7.99 5 8.98 5 10 C6.98 10 8.96 10 11 10 C11.33 11.32 11.66 12.64 12 14 C6.73829306 12.58832253 3.27828642 10.25149768 -1 7 C-0.01 6.34 0.98 5.68 2 5 C1.34 3.35 0.68 1.7 0 0 Z " fill="#209C53" transform="translate(57,58)"/>
<path d="M0 0 C2.60880189 0.07589242 3.83497043 0.18149813 6.125 1.5 C7.44385516 4.04978665 6.8600116 5.62996098 6.0625 8.3125 C5.4025 7.3225 4.7425 6.3325 4.0625 5.3125 C2.928125 5.3125 1.79375 5.3125 0.625 5.3125 C-2.9375 5.3125 -2.9375 5.3125 -4.875 3.8125 C-5.4009375 3.07 -5.4009375 3.07 -5.9375 2.3125 C-3.9375 0.3125 -3.9375 0.3125 0 0 Z " fill="#278959" transform="translate(108.9375,161.6875)"/>
<path d="M0 0 C1.10794922 -0.00580078 1.10794922 -0.00580078 2.23828125 -0.01171875 C6.84321539 -0.00359717 11.20737954 0.36789659 15.75 1.125 C15.75 1.455 15.75 1.785 15.75 2.125 C2.385 2.62 2.385 2.62 -11.25 3.125 C-11.25 2.465 -11.25 1.805 -11.25 1.125 C-7.47177072 -0.13440976 -3.93393314 -0.02017402 0 0 Z " fill="#1F9250" transform="translate(95.25,28.875)"/>
<path d="M0 0 C1.65 0.33 3.3 0.66 5 1 C1.12207712 5.92908146 -2.76116833 9.5423711 -8 13 C-8.66 12.67 -9.32 12.34 -10 12 C-9.38125 11.7525 -8.7625 11.505 -8.125 11.25 C-5.54248318 9.73087246 -5.20289142 8.7065057 -4 6 C-2.68457624 3.98817543 -1.3540932 1.98600337 0 0 Z " fill="#1E7F4F" transform="translate(97,142)"/>
<path d="M0 0 C2.6465335 2.6465335 3.59941997 5.56221264 5 9 C3.68 8.67 2.36 8.34 1 8 C0.896875 8.639375 0.79375 9.27875 0.6875 9.9375 C0.460625 10.618125 0.23375 11.29875 0 12 C-0.99 12.33 -1.98 12.66 -3 13 C-3.73323796 15.01508358 -3.73323796 15.01508358 -4 17 C-4.33 16.34 -4.66 15.68 -5 15 C-4.07645234 12.86873616 -2.94517969 10.90190051 -1.8125 8.875 C-1.544375 8.25625 -1.27625 7.6375 -1 7 C-1.33 6.34 -1.66 5.68 -2 5 C-2.66 5.66 -3.32 6.32 -4 7 C-4 5.68 -4 4.36 -4 3 C-2.68 3 -1.36 3 0 3 C0 2.01 0 1.02 0 0 Z " fill="#D4F8E3" transform="translate(48,53)"/>
<path d="M0 0 C0.99 0.33 1.98 0.66 3 1 C3 5.95 3 10.9 3 16 C1.68 15.67 0.36 15.34 -1 15 C-0.67 10.05 -0.34 5.1 0 0 Z " fill="#247C52" transform="translate(171,162)"/>
<path d="M0 0 C0.99 0.33 1.98 0.66 3 1 C3 6.61 3 12.22 3 18 C2.34 17.01 1.68 16.02 1 15 C0.34 14.67 -0.32 14.34 -1 14 C-0.67 9.38 -0.34 4.76 0 0 Z " fill="#187249" transform="translate(31,162)"/>
<path d="M0 0 C0.33 0 0.66 0 1 0 C1.07654536 4.51617599 1.10228696 8.59085217 0 13 C-0.66 13 -1.32 13 -2 13 C-2 16.96 -2 20.92 -2 25 C-2.33 25 -2.66 25 -3 25 C-3.0544207 22.31222198 -3.09387266 19.62556788 -3.125 16.9375 C-3.14175781 16.18533203 -3.15851562 15.43316406 -3.17578125 14.65820312 C-3.21863716 9.70834604 -2.6432698 5.68027585 -1 1 C-0.67 0.67 -0.34 0.34 0 0 Z " fill="#41AB6B" transform="translate(39,74)"/>
<path d="M0 0 C7.75 1.875 7.75 1.875 10 3 C10 3.99 10 4.98 10 6 C11.32 6.33 12.64 6.66 14 7 C12.1875 8.0625 12.1875 8.0625 10 9 C9.01 8.67 8.02 8.34 7 8 C6.71125 7.34 6.4225 6.68 6.125 6 C5.1446618 3.70849401 5.1446618 3.70849401 2.375 3.25 C1.59125 3.1675 0.8075 3.085 0 3 C0 2.01 0 1.02 0 0 Z " fill="#0E9B49" transform="translate(62,65)"/>
<path d="M0 0 C0.66 0 1.32 0 2 0 C2.33 1.32 2.66 2.64 3 4 C4.65 2.68 6.3 1.36 8 0 C8 4.29 8 8.58 8 13 C5.20557081 10.20557081 3.98752868 8.2983705 2.3125 4.8125 C1.65701172 3.46091797 1.65701172 3.46091797 0.98828125 2.08203125 C0.66214844 1.39496094 0.33601563 0.70789063 0 0 Z " fill="#CEF3E0" transform="translate(23,162)"/>
<path d="M0 0 C3.63 0 7.26 0 11 0 C8 3 8 3 5.3125 3.1875 C4.549375 3.125625 3.78625 3.06375 3 3 C3 4.65 3 6.3 3 8 C2.01 8 1.02 8 0 8 C0 5.36 0 2.72 0 0 Z " fill="#208F55" transform="translate(60,162)"/>
<path d="M0 0 C0.33 0.66 0.66 1.32 1 2 C1.99 2.33 2.98 2.66 4 3 C4.33 4.98 4.66 6.96 5 9 C0.49197399 7.74194623 -2.4912812 6.09592835 -6 3 C-2.25 0 -2.25 0 0 0 Z " fill="#059142" transform="translate(92,76)"/>
<path d="M0 0 C0.33 0 0.66 0 1 0 C1.33 4.62 1.66 9.24 2 14 C2.66 12.35 3.32 10.7 4 9 C4.66 9 5.32 9 6 9 C5.01 11.97 4.02 14.94 3 18 C1.02 18.33 -0.96 18.66 -3 19 C-2.34 18.67 -1.68 18.34 -1 18 C-0.505 9.09 -0.505 9.09 0 0 Z " fill="#DEF6E9" transform="translate(34,165)"/>
<path d="M0 0 C0.66 0 1.32 0 2 0 C2 0.66 2 1.32 2 2 C2.66 2 3.32 2 4 2 C4.33 2.99 4.66 3.98 5 5 C4.67 5.66 4.34 6.32 4 7 C4 8.32 4 9.64 4 11 C2.35 11.33 0.7 11.66 -1 12 C-1.33 11.34 -1.66 10.68 -2 10 C-1.34 9.67 -0.68 9.34 0 9 C0.21081851 5.10540926 0.21081851 5.10540926 -1 2 C-0.67 1.34 -0.34 0.68 0 0 Z " fill="#03A640" transform="translate(58,41)"/>
<path d="M0 0 C4.39599714 3.78965271 6.69519825 7.87226508 7.25390625 13.60546875 C7.30845346 16.12554988 7.35149304 18.50302995 7 21 C6.34 21.66 5.68 22.32 5 23 C4.96132812 21.7315625 4.96132812 21.7315625 4.921875 20.4375 C4.55944498 13.18889965 3.66013147 8.25764412 0 2 C0 1.34 0 0.68 0 0 Z " fill="#2F8F5D" transform="translate(142,29)"/>
<path d="M0 0 C0.99 0.33 1.98 0.66 3 1 C2.01 1.33 1.02 1.66 0 2 C-0.0825 2.78375 -0.165 3.5675 -0.25 4.375 C-1 7 -1 7 -3 8.125 C-3.66 8.41375 -4.32 8.7025 -5 9 C-5.33 9.99 -5.66 10.98 -6 12 C-6.99 12.33 -7.98 12.66 -9 13 C-9.33 11.68 -9.66 10.36 -10 9 C-9.01 9 -8.02 9 -7 9 C-5.60699818 7.04109119 -4.27754554 5.0360882 -3 3 C-1.25 1.125 -1.25 1.125 0 0 Z " fill="#1F8C53" transform="translate(116,77)"/>
<path d="M0 0 C0.44988281 0.36351562 0.89976563 0.72703125 1.36328125 1.1015625 C6.90273999 5.43099919 12.76634203 8.76858171 19 12 C18.67 12.66 18.34 13.32 18 14 C10.98443813 12.38102418 4.71446183 7.37298983 0 2 C0 1.34 0 0.68 0 0 Z " fill="#ABF1C7" transform="translate(56,55)"/>
<path d="M0 0 C0.66 0.33 1.32 0.66 2 1 C1.80664062 1.64066406 1.61328125 2.28132813 1.4140625 2.94140625 C-0.0940748 7.95110985 -1.57717786 12.96539857 -3 18 C-5.6719457 13.99208145 -5.6719457 13.99208145 -6 11 C-5.0390625 8.96484375 -5.0390625 8.96484375 -3.625 6.9375 C-1.96835001 4.52656523 -0.93727774 2.81183321 0 0 Z " fill="#268856" transform="translate(115,89)"/>
<path d="M0 0 C0.33 0 0.66 0 1 0 C1 2.31 1 4.62 1 7 C1.66 7 2.32 7 3 7 C3 7.66 3 8.32 3 9 C4.65 9 6.3 9 8 9 C8 9.33 8 9.66 8 10 C5.69 10 3.38 10 1 10 C1 11.65 1 13.3 1 15 C0.34 15 -0.32 15 -1 15 C-1.02685412 12.68756208 -1.04632841 10.3750373 -1.0625 8.0625 C-1.07410156 6.77472656 -1.08570313 5.48695313 -1.09765625 4.16015625 C-1 1 -1 1 0 0 Z " fill="#189C56" transform="translate(179,165)"/>
<path d="M0 0 C2.76223278 2.76223278 2.57856291 5.20706617 3 9 C5.31 9 7.62 9 10 9 C10 9.33 10 9.66 10 10 C6.37 10 2.74 10 -1 10 C-1.09765625 3.06640625 -1.09765625 3.06640625 -1 1 C-0.67 0.67 -0.34 0.34 0 0 Z " fill="#209958" transform="translate(61,173)"/>
<path d="M0 0 C-0.33 4.29 -0.66 8.58 -1 13 C-1.66 13 -2.32 13 -3 13 C-3.96070434 10.11788698 -4.10581883 8.30149956 -4.0625 5.3125 C-4.05347656 4.50425781 -4.04445312 3.69601563 -4.03515625 2.86328125 C-4.02355469 2.24839844 -4.01195312 1.63351563 -4 1 C-1 0 -1 0 0 0 Z " fill="#0D994A" transform="translate(142,165)"/>
<path d="M0 0 C1.65 0 3.3 0 5 0 C5.625 2.375 5.625 2.375 6 5 C5.34 5.66 4.68 6.32 4 7 C2.68 7 1.36 7 0 7 C0 4.69 0 2.38 0 0 Z " fill="#DAF9EB" transform="translate(181,165)"/>
<path d="M0 0 C1.65 0 3.3 0 5 0 C5.1875 3.375 5.1875 3.375 5 7 C4.01 7.66 3.02 8.32 2 9 C1 8 1 8 0.9375 5.4375 C0.958125 4.633125 0.97875 3.82875 1 3 C0.34 3 -0.32 3 -1 3 C-0.67 2.01 -0.34 1.02 0 0 Z " fill="#297F55" transform="translate(112,172)"/>
<path d="M0 0 C9.18619583 -0.31139647 9.18619583 -0.31139647 13 2 C13.8125 4.125 13.8125 4.125 14 6 C13.34 5.505 12.68 5.01 12 4.5 C7.93831003 2.46915501 5.52661957 2.64074448 1 3 C-1.40557853 3.86265968 -1.40557853 3.86265968 -3 5 C-3 4.01 -3 3.02 -3 2 C-2.01 2 -1.02 2 0 2 C0 1.34 0 0.68 0 0 Z " fill="#DBFAE9" transform="translate(101,53)"/>
<path d="M0 0 C1.84121215 1.09097798 3.67281256 2.19819251 5.5 3.3125 C6.5209375 3.92738281 7.541875 4.54226562 8.59375 5.17578125 C9.3878125 5.77777344 10.181875 6.37976563 11 7 C11 7.99 11 8.98 11 10 C6.39137539 8.50897439 3.46669756 6.30545582 0 3 C0 2.01 0 1.02 0 0 Z " fill="#22894F" transform="translate(57,134)"/>
<path d="M0 0 C2.31 0.66 4.62 1.32 7 2 C5.35 3.65 3.7 5.3 2 7 C-0.64 6.01 -3.28 5.02 -6 4 C-6 3.67 -6 3.34 -6 3 C-4.02 2.67 -2.04 2.34 0 2 C0 1.34 0 0.68 0 0 Z " fill="#229755" transform="translate(84,73)"/>
<path d="M0 0 C6.93 3.96 6.93 3.96 14 8 C11 9 11 9 7 9 C7 8.34 7 7.68 7 7 C6.34 7 5.68 7 5 7 C5 6.34 5 5.68 5 5 C4.34 5 3.68 5 3 5 C2.67 5.66 2.34 6.32 2 7 C0.5393715 4.35261084 0 3.10551666 0 0 Z " fill="#1FA255" transform="translate(55,36)"/>
<path d="M0 0 C1.65 0 3.3 0 5 0 C5.38218767 1.65614657 5.71395102 3.32457024 6 5 C5 6 5 6 2.4375 6.0625 C1.2309375 6.0315625 1.2309375 6.0315625 0 6 C0 4.02 0 2.04 0 0 Z " fill="#E1F9EE" transform="translate(64,174)"/>
<path d="M0 0 C0.99 0.33 1.98 0.66 3 1 C2.814375 1.61875 2.62875 2.2375 2.4375 2.875 C1.76313824 5.04160178 1.76313824 5.04160178 3 7 C2.34 7.66 1.68 8.32 1 9 C0.01 9 -0.98 9 -2 9 C-2.33 9.66 -2.66 10.32 -3 11 C-3.144375 10.21625 -3.28875 9.4325 -3.4375 8.625 C-3.87798925 6.03578982 -3.87798925 6.03578982 -5 4 C-3.68 4.33 -2.36 4.66 -1 5 C-0.67 3.35 -0.34 1.7 0 0 Z " fill="#6AB08C" transform="translate(43,165)"/>
<path d="M0 0 C-3.38168431 3.68006822 -6.42521756 5.9785845 -11 8 C-10.60935585 5.53471865 -10.26760629 4.26692012 -8.4765625 2.48046875 C-7.86554688 2.05378906 -7.25453125 1.62710938 -6.625 1.1875 C-6.01914063 0.74792969 -5.41328125 0.30835938 -4.7890625 -0.14453125 C-3 -1 -3 -1 0 0 Z " fill="#20774D" transform="translate(139,137)"/>
<path d="M0 0 C0.99 0 1.98 0 3 0 C3 4.95 3 9.9 3 15 C2.67 15 2.34 15 2 15 C0.53329887 9.77487721 -0.22577402 5.4185766 0 0 Z " fill="#0D984A" transform="translate(159,163)"/>
<path d="M0 0 C1.65 0 3.3 0 5 0 C5.625 1.875 5.625 1.875 6 4 C5.34 4.66 4.68 5.32 4 6 C2.68 6 1.36 6 0 6 C0 4.02 0 2.04 0 0 Z " fill="#DBF7EA" transform="translate(124,166)"/>
<path d="M0 0 C-1.75 3.875 -1.75 3.875 -4 5 C-6.3329866 5.04022391 -8.66706666 5.04320247 -11 5 C-9.68 4.67 -8.36 4.34 -7 4 C-7.33 3.01 -7.66 2.02 -8 1 C-5.10765685 0.17361624 -3.11257569 0 0 0 Z " fill="#338C61" transform="translate(173,178)"/>
<path d="M0 0 C-1.1858237 3.37503669 -2.27573689 5.64722731 -5 8 C-5.33 5.36 -5.66 2.72 -6 0 C-3 -1 -3 -1 0 0 Z " fill="#048742" transform="translate(114,92)"/>
<path d="M0 0 C0.99 0 1.98 0 3 0 C3.28875 1.11375 3.5775 2.2275 3.875 3.375 C4.69241329 7.00291092 4.69241329 7.00291092 7 9 C5.68 9 4.36 9 3 9 C0.43228397 5.69865082 0 4.27125508 0 0 Z " fill="#198C4F" transform="translate(129,52)"/>
<path d="M0 0 C1.27351308 2.54702616 0.80191925 3.4282945 0.0625 6.125 C-0.13214844 6.84945312 -0.32679687 7.57390625 -0.52734375 8.3203125 C-0.68332031 8.87460938 -0.83929688 9.42890625 -1 10 C-1.66 10 -2.32 10 -3 10 C-3.33 10.99 -3.66 11.98 -4 13 C-4.49230769 5.73846154 -4.49230769 5.73846154 -2 2 C-1.34 1.34 -0.68 0.68 0 0 Z " fill="#209654" transform="translate(100,56)"/>
<path d="M0 0 C0.66 0 1.32 0 2 0 C3.12029814 5.48946087 2.79217969 8.83430559 1 14 C0.67 14 0.34 14 0 14 C0 9.38 0 4.76 0 0 Z " fill="#049D49" transform="translate(121,167)"/>
<path d="M0 0 C3.7910119 1.44950455 7.3874638 3.15172566 11 5 C10.01 5.33 9.02 5.66 8 6 C7.67 6.99 7.34 7.98 7 9 C5.83037314 7.69013727 4.66437056 6.3770374 3.5 5.0625 C2.8503125 4.33160156 2.200625 3.60070312 1.53125 2.84765625 C0 1 0 1 0 0 Z " fill="#2B9B5F" transform="translate(86,80)"/>
<path d="M0 0 C4 3 8 6 12 9 C8.30098995 9 6.25963588 7.66449492 3 6 C2.34 6 1.68 6 1 6 C0.67 4.02 0.34 2.04 0 0 Z " fill="#D8F9E5" transform="translate(53,62)"/>
<path d="M0 0 C1.98 0 3.96 0 6 0 C4.125 5.75 4.125 5.75 3 8 C0 3.375 0 3.375 0 0 Z " fill="#168B50" transform="translate(44,162)"/>
<path d="M0 0 C2.33936818 2.12669835 3.80653848 4.06224856 5 7 C5 7.99 5 8.98 5 10 C2 9 2 9 0.25 6.6875 C-1 4 -1 4 -0.6875 1.6875 C-0.460625 1.130625 -0.23375 0.57375 0 0 Z " fill="#2A865C" transform="translate(149,55)"/>
<path d="M0 0 C1.32 1.32 2.64 2.64 4 4 C2.92598892 6.91517292 2.22189824 8.77810176 0 11 C0 7.37 0 3.74 0 0 Z " fill="#E4FBF3" transform="translate(22,170)"/>
<path d="M0 0 C0.33 0.99 0.66 1.98 1 3 C2.98 3 4.96 3 7 3 C7 3.33 7 3.66 7 4 C5.906875 4.12375 4.81375 4.2475 3.6875 4.375 C-0.07381802 4.75464801 -0.07381802 4.75464801 -3 7 C-3.66 6.34 -4.32 5.68 -5 5 C-3.35 3.35 -1.7 1.7 0 0 Z " fill="#D0F2E1" transform="translate(99,146)"/>
<path d="M0 0 C0.66 0 1.32 0 2 0 C2.33 1.98 2.66 3.96 3 6 C2.01 6.33 1.02 6.66 0 7 C-0.66 6.67 -1.32 6.34 -2 6 C-1.34 4.02 -0.68 2.04 0 0 Z " fill="#117E46" transform="translate(100,136)"/>
<path d="M0 0 C2.64 0.33 5.28 0.66 8 1 C8 1.66 8 2.32 8 3 C8.99 3.33 9.98 3.66 11 4 C8.03 4 5.06 4 2 4 C1.34 2.68 0.68 1.36 0 0 Z " fill="#079743" transform="translate(76,72)"/>
<path d="M0 0 C0.99 0.66 1.98 1.32 3 2 C2 4 2 4 -0.50390625 4.8515625 C-2.01791016 5.23441406 -2.01791016 5.23441406 -3.5625 5.625 C-4.57441406 5.88539062 -5.58632812 6.14578125 -6.62890625 6.4140625 C-7.41136719 6.60742188 -8.19382812 6.80078125 -9 7 C-6.18600451 4.08979954 -3.54865549 1.97147527 0 0 Z " fill="#268C56" transform="translate(132,66)"/>
<path d="M0 0 C1.65 0 3.3 0 5 0 C4.67 1.65 4.34 3.3 4 5 C2.68 5 1.36 5 0 5 C0 3.35 0 1.7 0 0 Z " fill="#E1FCF3" transform="translate(64,165)"/>
<path d="M0 0 C3.26954202 0.56371414 4.82575883 1.49962266 7 4 C5.02 4.99 5.02 4.99 3 6 C1.68 4.68 0.36 3.36 -1 2 C-0.67 1.34 -0.34 0.68 0 0 Z " fill="#208656" transform="translate(147,162)"/>
<path d="M0 0 C1.9375 0.625 1.9375 0.625 4 2 C4.75 5.125 4.75 5.125 5 8 C2.5 6.25 2.5 6.25 0 4 C0 2.68 0 1.36 0 0 Z " fill="#379862" transform="translate(52,129)"/>
<path d="M0 0 C0.33 0.66 0.66 1.32 1 2 C0.22265625 3.9453125 0.22265625 3.9453125 -0.9375 6.125 C-1.31777344 6.84945312 -1.69804687 7.57390625 -2.08984375 8.3203125 C-2.39019531 8.87460938 -2.69054687 9.42890625 -3 10 C-3.99 9.34 -4.98 8.68 -6 8 C-4.02 5.36 -2.04 2.72 0 0 Z " fill="#DEF7EC" transform="translate(150,125)"/>
<path d="M0 0 C3.465 1.485 3.465 1.485 7 3 C6.67 3.99 6.34 4.98 6 6 C3.36 5.01 0.72 4.02 -2 3 C-1.34 2.67 -0.68 2.34 0 2 C0 1.34 0 0.68 0 0 Z " fill="#359361" transform="translate(122,33)"/>
<path d="M0 0 C0.66 0.33 1.32 0.66 2 1 C2 1.99 2 2.98 2 4 C5.3 4 8.6 4 12 4 C12 4.33 12 4.66 12 5 C8.04 5 4.08 5 0 5 C-0.33 3.68 -0.66 2.36 -1 1 C-0.67 0.67 -0.34 0.34 0 0 Z " fill="#3D9969" transform="translate(78,178)"/>
<path d="M0 0 C0 0.66 0 1.32 0 2 C-2.1875 3.1875 -2.1875 3.1875 -5 4 C-7.8125 2.625 -7.8125 2.625 -10 1 C-6.42181037 -1.33958553 -4.07775191 -0.9267618 0 0 Z " fill="#C8F2D7" transform="translate(70,39)"/>
<path d="M0 0 C2.39763185 2.39763185 2.34280586 3.33273498 2.625 6.625 C2.69976562 7.44226563 2.77453125 8.25953125 2.8515625 9.1015625 C2.90054688 9.72804687 2.94953125 10.35453125 3 11 C2.01 10.67 1.02 10.34 0 10 C0 6.7 0 3.4 0 0 Z " fill="#EBFFF5" transform="translate(156,169)"/>
<path d="M0 0 C0.33 0 0.66 0 1 0 C1 2.31 1 4.62 1 7 C-0.98 7.99 -0.98 7.99 -3 9 C-2.01 6.03 -1.02 3.06 0 0 Z " fill="#0D7546" transform="translate(153,172)"/>
<path d="M0 0 C0.33 0 0.66 0 1 0 C1 2.31 1 4.62 1 7 C1.66 7 2.32 7 3 7 C3 5.35 3 3.7 3 2 C3.33 2 3.66 2 4 2 C4 3.98 4 5.96 4 8 C2.02 8.99 2.02 8.99 0 10 C0 6.7 0 3.4 0 0 Z " fill="#2C945C" transform="translate(177,173)"/>
<path d="M0 0 C0.33 0.66 0.66 1.32 1 2 C-0.423125 2.37125 -0.423125 2.37125 -1.875 2.75 C-5.08693191 3.6857077 -5.08693191 3.6857077 -6.375 6.125 C-6.58125 6.74375 -6.7875 7.3625 -7 8 C-7.33 8 -7.66 8 -8 8 C-8 6.02 -8 4.04 -8 2 C-5.36 1.34 -2.72 0.68 0 0 Z " fill="#E3FDF1" transform="translate(189,173)"/>
<path d="M0 0 C0.33 0.99 0.66 1.98 1 3 C0 4 0 4 -3.5625 4.0625 C-4.696875 4.041875 -5.83125 4.02125 -7 4 C-7 3.34 -7 2.68 -7 2 C-4.35261084 0.5393715 -3.10551666 0 0 0 Z " fill="#1B844F" transform="translate(189,170)"/>
<path d="M0 0 C2.475 0.495 2.475 0.495 5 1 C5 2.65 5 4.3 5 6 C4.01 6 3.02 6 2 6 C1.34 4.02 0.68 2.04 0 0 Z " fill="#0E7747" transform="translate(68,163)"/>
<path d="M0 0 C0.66 0.33 1.32 0.66 2 1 C1.67 1.33 1.34 1.66 1 2 C1.99 2.33 2.98 2.66 4 3 C4 3.66 4 4.32 4 5 C1.69 4.67 -0.62 4.34 -3 4 C-3 3.01 -3 2.02 -3 1 C-2.01 0.67 -1.02 0.34 0 0 Z " fill="#EAF9F4" transform="translate(124,147)"/>
<path d="M0 0 C0.33 0.99 0.66 1.98 1 3 C0.67 3.66 0.34 4.32 0 5 C-0.99 5 -1.98 5 -3 5 C-3.33 5.99 -3.66 6.98 -4 8 C-4.99 7.67 -5.98 7.34 -7 7 C-4.69 4.69 -2.38 2.38 0 0 Z " fill="#D3F5E3" transform="translate(135,69)"/>
<path d="M0 0 C0.33 0 0.66 0 1 0 C1.33 1.98 1.66 3.96 2 6 C-0.64 6 -3.28 6 -6 6 C-6 5.34 -6 4.68 -6 4 C-4.35 3.67 -2.7 3.34 -1 3 C-0.67 2.01 -0.34 1.02 0 0 Z " fill="#17804E" transform="translate(70,176)"/>
<path d="M0 0 C0.99 0.33 1.98 0.66 3 1 C3.33 2.65 3.66 4.3 4 6 C2.68 5.67 1.36 5.34 0 5 C-0.5625 3.0625 -0.5625 3.0625 -1 1 C-0.67 0.67 -0.34 0.34 0 0 Z " fill="#087944" transform="translate(51,175)"/>
<path d="M0 0 C3 2 3 2 3.6875 4.625 C3.790625 5.40875 3.89375 6.1925 4 7 C3.01 6.67 2.02 6.34 1 6 C1 6.66 1 7.32 1 8 C-0.32 7.67 -1.64 7.34 -3 7 C-1.68 6.01 -0.36 5.02 1 4 C0.67 2.68 0.34 1.36 0 0 Z " fill="#C3EFD6" transform="translate(44,167)"/>
<path d="M0 0 C2 2 2 2 2.1953125 3.9453125 C2.13020833 5.96354167 2.06510417 7.98177083 2 10 C1.34 9.01 0.68 8.02 0 7 C-0.66 6.67 -1.32 6.34 -2 6 C-1.34 4.02 -0.68 2.04 0 0 Z " fill="#0B7041" transform="translate(32,170)"/>
<path d="M0 0 C0.33 0.66 0.66 1.32 1 2 C-1.97 2 -4.94 2 -8 2 C-8 1.34 -8 0.68 -8 0 C-4.97878489 -0.97110486 -2.99536737 -1.13617383 0 0 Z " fill="#D4F3E2" transform="translate(68,160)"/>
<path d="M0 0 C0.33 1.32 0.66 2.64 1 4 C-0.65 4.66 -2.3 5.32 -4 6 C-4 5.34 -4 4.68 -4 4 C-4.66 3.67 -5.32 3.34 -6 3 C-4.02 2.01 -2.04 1.02 0 0 Z " fill="#33845D" transform="translate(127,142)"/>
<path d="M0 0 C0.99 0 1.98 0 3 0 C2.1875 2.9375 2.1875 2.9375 1 6 C0.01 6.33 -0.98 6.66 -2 7 C-1.125 2.25 -1.125 2.25 0 0 Z " fill="#20774E" transform="translate(150,119)"/>
<path d="M0 0 C0.33 0.99 0.66 1.98 1 3 C1.66 3 2.32 3 3 3 C2.67 4.65 2.34 6.3 2 8 C1.67 7.34 1.34 6.68 1 6 C0.34 6 -0.32 6 -1 6 C-1.625 4.125 -1.625 4.125 -2 2 C-1.34 1.34 -0.68 0.68 0 0 Z " fill="#098841" transform="translate(100,93)"/>
<path d="M0 0 C0.66 0 1.32 0 2 0 C2 0.66 2 1.32 2 2 C2.99 1.67 3.98 1.34 5 1 C5.66 1.66 6.32 2.32 7 3 C6.34 3 5.68 3 5 3 C5.33 4.98 5.66 6.96 6 9 C3.59927045 6.11912454 1.52708963 3.43595166 0 0 Z " fill="#198C52" transform="translate(103,91)"/>
<path d="M0 0 C0.66 0.66 1.32 1.32 2 2 C1.01 3.32 0.02 4.64 -1 6 C-2.32 4.35 -3.64 2.7 -5 1 C-3 0 -3 0 0 0 Z " fill="#CCF2E2" transform="translate(109,82)"/>
<path d="M0 0 C0.33 0 0.66 0 1 0 C1.05391993 1.79133978 1.09275571 3.58313899 1.125 5.375 C1.14820313 6.37273438 1.17140625 7.37046875 1.1953125 8.3984375 C1 11 1 11 -1 13 C-1.66 12.34 -2.32 11.68 -3 11 C-2.690625 10.29875 -2.38125 9.5975 -2.0625 8.875 C-0.96697322 5.91063343 -0.43577008 3.12301892 0 0 Z " fill="#D6F7E7" transform="translate(149,44)"/>
<path d="M0 0 C-4.10457614 2.98514628 -6.97745369 3.2954439 -12 3 C-12 2.67 -12 2.34 -12 2 C-10.02 2 -8.04 2 -6 2 C-6 1.34 -6 0.68 -6 0 C-3 -1 -3 -1 0 0 Z " fill="#289058" transform="translate(114,73)"/>
<path d="M0 0 C2.31 0.33 4.62 0.66 7 1 C5.68 1.33 4.36 1.66 3 2 C3 3.98 3 5.96 3 8 C2.67 8 2.34 8 2 8 C2 6.35 2 4.7 2 3 C1.34 3 0.68 3 0 3 C0 2.01 0 1.02 0 0 Z " fill="#1B9D55" transform="translate(121,164)"/>
<path d="M0 0 C0.66 0 1.32 0 2 0 C2 1.98 2 3.96 2 6 C1.01 6 0.02 6 -1 6 C-1.042721 4.33388095 -1.04063832 2.66617115 -1 1 C-0.67 0.67 -0.34 0.34 0 0 Z " fill="#0B9949" transform="translate(61,164)"/>
<path d="M0 0 C0.66 0.99 1.32 1.98 2 3 C0.02 4.32 -1.96 5.64 -4 7 C-4.66 6.67 -5.32 6.34 -6 6 C-5.38125 5.7525 -4.7625 5.505 -4.125 5.25 C-1.64931313 3.79371361 -1.04874998 2.62187494 0 0 Z " fill="#4A8F70" transform="translate(93,148)"/>
<path d="M0 0 C0.61488281 0.19078125 1.22976562 0.3815625 1.86328125 0.578125 C0.74254263 1.41718065 -0.38346422 2.24920331 -1.51171875 3.078125 C-2.13820313 3.5421875 -2.7646875 4.00625 -3.41015625 4.484375 C-5.13671875 5.578125 -5.13671875 5.578125 -7.13671875 5.578125 C-5.92340024 1.93816948 -4.18071525 -0.82544286 0 0 Z " fill="#DBF9EB" transform="translate(127.13671875,68.421875)"/>
<path d="M0 0 C1.32 1.32 2.64 2.64 4 4 C3.01 4.33 2.02 4.66 1 5 C-0.66710346 6.49985609 -0.66710346 6.49985609 -2 8 C-1.34 5.36 -0.68 2.72 0 0 Z " fill="#2F9F5D" transform="translate(51,32)"/>
<path d="M0 0 C0 0.66 0 1.32 0 2 C0.99 2.33 1.98 2.66 3 3 C0.69 3.33 -1.62 3.66 -4 4 C-4.66 3.01 -5.32 2.02 -6 1 C-3.92446352 0.4465236 -2.15634036 0 0 0 Z " fill="#41A46D" transform="translate(84,30)"/>
<path d="M0 0 C4.75 0.75 4.75 0.75 7 3 C4.36 3 1.72 3 -1 3 C-0.67 2.01 -0.34 1.02 0 0 Z " fill="#2D9061" transform="translate(79,162)"/>
<path d="M0 0 C1.98 0.495 1.98 0.495 4 1 C1.25 5.875 1.25 5.875 -1 7 C-1 6.01 -1 5.02 -1 4 C-0.34 4 0.32 4 1 4 C0.67 2.68 0.34 1.36 0 0 Z " fill="#D4EEE2" transform="translate(139,128)"/>
</svg>
